<?xml version="1.0" encoding="utf-8"?>
<!-- Generator: Adobe Illustrator 26.1.0, SVG Export Plug-In . SVG Version: 6.00 Build 0)  -->
<svg version="1.1" id="Capa_1" xmlns="http://www.w3.org/2000/svg" xmlns:xlink="http://www.w3.org/1999/xlink" x="0px" y="0px"
	 viewBox="0 0 102.8 34.9" style="enable-background:new 0 0 102.8 34.9;" xml:space="preserve">
<style type="text/css">
	.st0{fill:#FFFFFF;}
	.st1{fill:#D2B452;}
</style>
<g>
	<g>
		<g>
			<g>
				<path class="st0" d="M14.1,16.7c0-0.1-0.1-0.1-0.1-0.2c0,0,0-0.1,0-0.2l5.5-9.5c0.2-0.3,0.4-0.4,0.7-0.4h2.4
					c0.3,0,0.5,0.1,0.5,0.4l1.4,9.5c0,0.1,0,0.2-0.1,0.3c-0.1,0.1-0.2,0.1-0.3,0.1h-1.9c-0.3,0-0.4-0.1-0.5-0.4l-0.2-1.4h-3.9
					l-0.9,1.4c-0.1,0.2-0.3,0.3-0.6,0.3h-2C14.2,16.8,14.2,16.8,14.1,16.7z M18.9,12.8h2.6L21,9L18.9,12.8z"/>
				<path class="st0" d="M26,16.7c-0.1-0.1-0.1-0.2-0.1-0.3l2-9.6c0-0.1,0.1-0.2,0.2-0.3c0.1-0.1,0.2-0.1,0.3-0.1h4.1
					c1.1,0,2,0.2,2.6,0.7C35.7,7.5,36,8.2,36,9c0,0.3,0,0.5-0.1,0.8c-0.1,0.7-0.4,1.3-0.8,1.8c-0.4,0.5-1,0.9-1.6,1.1l1.2,3.6
					c0,0.1,0,0.1,0,0.2c0,0.1-0.1,0.2-0.1,0.2c-0.1,0.1-0.2,0.1-0.2,0.1h-2.1c-0.3,0-0.5-0.1-0.5-0.4l-1-3.2h-1.4l-0.7,3.3
					c0,0.1-0.1,0.2-0.2,0.3c-0.1,0.1-0.2,0.1-0.3,0.1h-2C26.1,16.8,26,16.8,26,16.7z M31.5,11c0.4,0,0.8-0.1,1-0.3
					c0.3-0.2,0.4-0.5,0.5-0.9c0-0.1,0-0.2,0-0.3c0-0.3-0.1-0.5-0.3-0.7c-0.2-0.2-0.4-0.2-0.8-0.2h-1.6L29.9,11H31.5z"/>
				<path class="st0" d="M38.2,16.7c-0.1-0.1-0.1-0.2-0.1-0.3l1.6-7.6h-2.6c-0.1,0-0.2,0-0.3-0.1c-0.1-0.1-0.1-0.2-0.1-0.3l0.4-1.7
					c0-0.1,0.1-0.2,0.2-0.3c0.1-0.1,0.2-0.1,0.3-0.1h8.1c0.1,0,0.2,0,0.3,0.1C46,6.6,46.1,6.7,46,6.8l-0.4,1.7
					c0,0.1-0.1,0.2-0.2,0.3c-0.1,0.1-0.2,0.1-0.3,0.1h-2.6L41,16.5c0,0.1-0.1,0.2-0.2,0.3c-0.1,0.1-0.2,0.1-0.3,0.1h-2.1
					C38.4,16.8,38.3,16.8,38.2,16.7z"/>
				<path class="st0" d="M43.3,16.7c0-0.1-0.1-0.1-0.1-0.2c0,0,0-0.1,0-0.2l5.5-9.5c0.2-0.3,0.4-0.4,0.7-0.4h2.4
					c0.3,0,0.5,0.1,0.5,0.4l1.4,9.5c0,0.1,0,0.2-0.1,0.3c-0.1,0.1-0.2,0.1-0.3,0.1h-1.9c-0.3,0-0.4-0.1-0.5-0.4l-0.2-1.4H47
					l-0.9,1.4c-0.1,0.2-0.3,0.3-0.6,0.3h-2C43.5,16.8,43.4,16.8,43.3,16.7z M48.1,12.8h2.6L50.2,9L48.1,12.8z"/>
				<path class="st0" d="M55,16.7c-0.1-0.1-0.1-0.2-0.1-0.3l2-9.6c0-0.1,0.1-0.2,0.2-0.3c0.1-0.1,0.2-0.1,0.3-0.1h4.4
					c1.1,0,1.9,0.2,2.5,0.6c0.6,0.4,0.9,1,0.9,1.7c0,0.2,0,0.4-0.1,0.6c-0.1,0.5-0.3,0.9-0.6,1.2c-0.3,0.3-0.7,0.6-1,0.7
					c0.3,0.2,0.6,0.4,0.7,0.7c0.2,0.3,0.3,0.7,0.3,1.1c0,0.1,0,0.3-0.1,0.5c-0.2,1-0.7,1.8-1.4,2.4c-0.7,0.5-1.7,0.8-2.9,0.8h-4.9
					C55.1,16.8,55.1,16.8,55,16.7z M60.1,14.8c0.4,0,0.7-0.1,1-0.3c0.3-0.2,0.4-0.5,0.5-0.8c0-0.1,0-0.2,0-0.3
					c0-0.3-0.1-0.5-0.3-0.6c-0.2-0.2-0.4-0.2-0.8-0.2h-2l-0.5,2.3H60.1z M60.8,10.5c0.4,0,0.8-0.1,1-0.4c0.3-0.3,0.4-0.6,0.4-1
					c0-0.2-0.1-0.4-0.2-0.5c-0.1-0.1-0.4-0.2-0.7-0.2h-1.9L59,10.5H60.8z"/>
				<path class="st0" d="M65.7,16.7c-0.1-0.1-0.1-0.2-0.1-0.3l2-9.6c0-0.1,0.1-0.2,0.2-0.3c0.1-0.1,0.2-0.1,0.3-0.1h4.1
					c1.1,0,2,0.2,2.6,0.7c0.6,0.4,0.9,1.1,0.9,1.9c0,0.3,0,0.5-0.1,0.8c-0.1,0.7-0.4,1.3-0.8,1.8c-0.4,0.5-1,0.9-1.6,1.1l1.2,3.6
					c0,0.1,0,0.1,0,0.2c0,0.1-0.1,0.2-0.1,0.2c-0.1,0.1-0.2,0.1-0.2,0.1H72c-0.3,0-0.5-0.1-0.5-0.4l-1-3.2h-1.4l-0.7,3.3
					c0,0.1-0.1,0.2-0.2,0.3c-0.1,0.1-0.2,0.1-0.3,0.1h-2C65.9,16.8,65.8,16.8,65.7,16.7z M71.3,11c0.4,0,0.8-0.1,1-0.3
					c0.3-0.2,0.4-0.5,0.5-0.9c0-0.1,0-0.2,0-0.3c0-0.3-0.1-0.5-0.3-0.7c-0.2-0.2-0.4-0.2-0.8-0.2h-1.6L69.6,11H71.3z"/>
				<path class="st0" d="M75.8,16.7c-0.1-0.1-0.1-0.2-0.1-0.3l2.1-9.7c0-0.1,0.1-0.2,0.2-0.3c0.1-0.1,0.2-0.1,0.3-0.1h2.1
					c0.1,0,0.2,0,0.2,0.1c0.1,0.1,0.1,0.2,0.1,0.3l-2.1,9.7c0,0.1-0.1,0.2-0.2,0.3c-0.1,0.1-0.2,0.1-0.3,0.1h-2.1
					C76,16.8,75.9,16.8,75.8,16.7z"/>
				<path class="st0" d="M79.8,16.7c0-0.1-0.1-0.1-0.1-0.2c0,0,0-0.1,0-0.2l5.5-9.5c0.2-0.3,0.4-0.4,0.7-0.4h2.4
					c0.3,0,0.5,0.1,0.5,0.4l1.4,9.5c0,0.1,0,0.2-0.1,0.3c-0.1,0.1-0.2,0.1-0.3,0.1h-1.9c-0.3,0-0.4-0.1-0.5-0.4l-0.2-1.4h-3.9
					l-0.9,1.4c-0.1,0.2-0.3,0.3-0.6,0.3h-2C79.9,16.8,79.9,16.8,79.8,16.7z M84.6,12.8h2.6L86.7,9L84.6,12.8z"/>
				<path class="st0" d="M91.5,16.7c-0.1-0.1-0.1-0.2-0.1-0.3l2-9.6c0-0.1,0.1-0.2,0.2-0.3c0.1-0.1,0.2-0.1,0.3-0.1h1.7
					c0.2,0,0.4,0.1,0.5,0.3l2.3,5.6l1.2-5.5c0-0.1,0.1-0.2,0.2-0.3c0.1-0.1,0.2-0.1,0.3-0.1h1.9c0.1,0,0.2,0,0.2,0.1
					c0.1,0.1,0.1,0.2,0.1,0.3l-2,9.6c0,0.1-0.1,0.2-0.2,0.3c-0.1,0.1-0.2,0.1-0.3,0.1H98c-0.1,0-0.2,0-0.3-0.1
					c-0.1-0.1-0.1-0.1-0.2-0.2l-2.4-5.3l-1.1,5.3c0,0.1-0.1,0.2-0.2,0.3c-0.1,0.1-0.2,0.1-0.3,0.1h-1.9
					C91.6,16.8,91.5,16.8,91.5,16.7z"/>
			</g>
		</g>
		<g>
			<path class="st0" d="M13.1,26.1C13,26.1,13,26,13,25.9l0.2-6.7c0-0.1,0-0.1,0.1-0.2s0.1-0.1,0.2-0.1h1.3c0.2,0,0.3,0.1,0.3,0.3
				l-0.2,3.9l1.2-2.2c0.1-0.2,0.2-0.3,0.4-0.3h0.8c0.2,0,0.3,0.1,0.3,0.3l0.2,2.3l1.5-3.9c0-0.1,0.1-0.2,0.1-0.2
				c0.1,0,0.1-0.1,0.2-0.1h1.4c0.1,0,0.1,0,0.1,0c0,0,0,0.1,0,0.1c0,0,0,0.1,0,0.1l-2.4,6.7c0,0.1-0.1,0.2-0.2,0.2
				c-0.1,0.1-0.2,0.1-0.3,0.1h-1.1c-0.1,0-0.2,0-0.2-0.1C17,26.1,16.9,26,16.9,26l-0.5-2.9L14.9,26c-0.1,0.2-0.2,0.3-0.4,0.3h-1
				C13.3,26.2,13.2,26.2,13.1,26.1z"/>
			<path class="st0" d="M20.9,26.1c0,0-0.1-0.1,0-0.2l1.4-6.7c0-0.1,0.1-0.1,0.1-0.2c0.1-0.1,0.1-0.1,0.2-0.1h4.9
				c0.1,0,0.1,0,0.2,0.1c0,0.1,0.1,0.1,0,0.2l-0.2,1c0,0.1-0.1,0.1-0.1,0.2c-0.1,0-0.1,0.1-0.2,0.1h-3.3l-0.3,1.3h3.1
				c0.1,0,0.1,0,0.2,0.1c0,0.1,0.1,0.1,0,0.2L26.7,23c0,0.1-0.1,0.1-0.1,0.2c-0.1,0.1-0.1,0.1-0.2,0.1h-3.1L23,24.7h3.4
				c0.1,0,0.1,0,0.2,0.1c0,0.1,0.1,0.1,0,0.2l-0.2,1c0,0.1-0.1,0.1-0.1,0.2c-0.1,0-0.1,0.1-0.2,0.1h-5C21,26.2,20.9,26.2,20.9,26.1z
				"/>
			<path class="st0" d="M27.6,26.1c0,0-0.1-0.1,0-0.2l1.4-6.7c0-0.1,0.1-0.1,0.1-0.2c0.1-0.1,0.1-0.1,0.2-0.1h4.9
				c0.1,0,0.1,0,0.2,0.1s0.1,0.1,0,0.2l-0.2,1c0,0.1-0.1,0.1-0.1,0.2c-0.1,0-0.1,0.1-0.2,0.1h-3.3l-0.3,1.3h3.1c0.1,0,0.1,0,0.2,0.1
				c0,0.1,0.1,0.1,0,0.2L33.4,23c0,0.1-0.1,0.1-0.1,0.2c-0.1,0.1-0.1,0.1-0.2,0.1H30l-0.3,1.4h3.4c0.1,0,0.1,0,0.2,0.1
				c0,0.1,0.1,0.1,0,0.2L33,26c0,0.1-0.1,0.1-0.1,0.2c-0.1,0-0.1,0.1-0.2,0.1h-5C27.7,26.2,27.6,26.2,27.6,26.1z"/>
			<path class="st0" d="M34.2,26.1c0,0-0.1-0.1,0-0.2l1.4-6.7c0-0.1,0.1-0.1,0.1-0.2c0.1-0.1,0.1-0.1,0.2-0.1h1.4
				c0.1,0,0.1,0,0.2,0.1c0,0.1,0.1,0.1,0,0.2l-0.5,2.2l2.2-2.3c0.1-0.1,0.3-0.2,0.4-0.2h1.6c0.1,0,0.1,0,0.1,0.1c0,0,0,0.1,0,0.1
				c0,0.1,0,0.1-0.1,0.1l-3.1,3.3l1.9,3.3c0,0,0,0.1,0,0.1c0,0.1,0,0.1-0.1,0.2c-0.1,0-0.1,0.1-0.2,0.1h-1.5c-0.2,0-0.3-0.1-0.4-0.2
				l-1.5-2.6L36.1,26c0,0.1-0.1,0.1-0.1,0.2c-0.1,0-0.1,0.1-0.2,0.1h-1.4C34.3,26.2,34.3,26.2,34.2,26.1z"/>
			<path class="st0" d="M41.1,26.1c0,0-0.1-0.1,0-0.2l1.4-6.7c0-0.1,0.1-0.1,0.1-0.2s0.1-0.1,0.2-0.1h4.9c0.1,0,0.1,0,0.2,0.1
				c0,0.1,0.1,0.1,0,0.2l-0.2,1c0,0.1-0.1,0.1-0.1,0.2c-0.1,0-0.1,0.1-0.2,0.1h-3.3l-0.3,1.3h3.1c0.1,0,0.1,0,0.2,0.1
				c0,0.1,0.1,0.1,0,0.2L46.9,23c0,0.1-0.1,0.1-0.1,0.2c-0.1,0.1-0.1,0.1-0.2,0.1h-3.1l-0.3,1.4h3.4c0.1,0,0.1,0,0.2,0.1
				c0,0.1,0.1,0.1,0,0.2l-0.2,1c0,0.1-0.1,0.1-0.1,0.2c-0.1,0-0.1,0.1-0.2,0.1h-5C41.2,26.2,41.2,26.2,41.1,26.1z"/>
			<path class="st0" d="M47.8,26.1c0,0-0.1-0.1,0-0.2l1.4-6.7c0-0.1,0.1-0.1,0.1-0.2c0.1-0.1,0.1-0.1,0.2-0.1h1.2
				c0.2,0,0.3,0.1,0.3,0.2l1.6,3.9l0.8-3.8c0-0.1,0.1-0.1,0.1-0.2c0.1-0.1,0.1-0.1,0.2-0.1h1.3c0.1,0,0.1,0,0.2,0.1
				c0,0.1,0.1,0.1,0,0.2L53.8,26c0,0.1-0.1,0.1-0.1,0.2c-0.1,0.1-0.1,0.1-0.2,0.1h-1.2c-0.1,0-0.2,0-0.2-0.1c0,0-0.1-0.1-0.1-0.1
				l-1.7-3.7L49.6,26c0,0.1-0.1,0.1-0.1,0.2c-0.1,0-0.1,0.1-0.2,0.1H48C47.9,26.2,47.8,26.2,47.8,26.1z"/>
			<path class="st0" d="M55.3,26.1c0,0-0.1-0.1,0-0.2l1.4-6.7c0-0.1,0.1-0.1,0.1-0.2s0.1-0.1,0.2-0.1h2.6c0.5,0,1,0.1,1.5,0.3
				c0.4,0.2,0.8,0.4,1,0.8c0.3,0.3,0.4,0.8,0.4,1.2c0,0.1,0,0.3-0.1,0.5c-0.1,0.6-0.2,1.1-0.3,1.6c-0.2,1-0.7,1.7-1.2,2.2
				c-0.6,0.5-1.4,0.7-2.4,0.7h-3C55.4,26.2,55.3,26.2,55.3,26.1z M58.5,24.7c0.4,0,0.8-0.1,1-0.3c0.3-0.2,0.4-0.5,0.6-1
				c0.1-0.6,0.3-1.1,0.3-1.5c0-0.1,0-0.3,0-0.4c0-0.3-0.1-0.5-0.3-0.7c-0.2-0.2-0.5-0.2-0.8-0.2h-1l-0.9,4.2H58.5z"/>
			<path class="st1" d="M64.8,26.1c0-0.1-0.1-0.1,0-0.2l0.2-0.8c0-0.2,0.2-0.4,0.4-0.5l1.2-0.9c0.8-0.5,1.4-0.9,1.7-1.2
				c0.4-0.3,0.7-0.5,0.9-0.7c0.2-0.2,0.4-0.4,0.4-0.6c0-0.1,0-0.2,0-0.2c0-0.4-0.2-0.5-0.6-0.5c-0.3,0-0.5,0.1-0.7,0.2
				c-0.2,0.2-0.3,0.4-0.4,0.6c-0.1,0.2-0.2,0.2-0.4,0.2h-1.4c-0.1,0-0.1,0-0.2-0.1c0,0,0-0.1,0-0.2c0.1-0.5,0.3-0.9,0.6-1.2
				c0.3-0.4,0.7-0.7,1.2-0.9c0.5-0.2,1-0.3,1.5-0.3c0.8,0,1.3,0.2,1.8,0.5c0.4,0.3,0.6,0.7,0.6,1.3c0,0.2,0,0.4-0.1,0.5
				c-0.1,0.5-0.4,0.9-0.7,1.3c-0.4,0.4-1,0.8-1.7,1.3l-1,0.9h2.6c0.1,0,0.1,0,0.2,0.1c0,0,0.1,0.1,0,0.2L70.7,26
				c0,0.1-0.1,0.1-0.1,0.2s-0.1,0.1-0.2,0.1H65C64.9,26.2,64.9,26.2,64.8,26.1z"/>
			<path class="st1" d="M72.7,25.7c-0.5-0.4-0.7-0.9-0.7-1.6c0-0.2,0-0.3,0-0.5c0-0.3,0.1-0.6,0.2-1c0.1-0.4,0.2-0.7,0.2-1
				c0.5-1.8,1.6-2.7,3.4-2.7c0.8,0,1.4,0.2,1.9,0.6c0.5,0.4,0.7,0.9,0.7,1.6c0,0.1,0,0.3,0,0.5c-0.1,0.7-0.2,1.3-0.4,2
				c-0.2,0.9-0.6,1.6-1.2,2c-0.5,0.5-1.3,0.7-2.3,0.7C73.8,26.3,73.2,26.1,72.7,25.7z M76.1,23.5c0.2-0.6,0.3-1.2,0.4-1.9
				c0-0.2,0-0.4,0-0.4c0-0.3-0.1-0.5-0.2-0.6c-0.1-0.1-0.3-0.2-0.6-0.2c-0.3,0-0.6,0.1-0.8,0.3s-0.4,0.5-0.5,0.9
				c-0.2,0.6-0.3,1.2-0.4,1.9c0,0.1,0,0.3,0,0.4c0,0.3,0.1,0.4,0.2,0.6c0.1,0.1,0.3,0.2,0.6,0.2C75.5,24.8,75.9,24.4,76.1,23.5z"/>
			<path class="st1" d="M78.7,26.1c0-0.1-0.1-0.1,0-0.2l0.2-0.8c0-0.2,0.2-0.4,0.4-0.5l1.2-0.9c0.8-0.5,1.4-0.9,1.7-1.2
				c0.4-0.3,0.7-0.5,0.9-0.7c0.2-0.2,0.4-0.4,0.4-0.6c0-0.1,0-0.2,0-0.2c0-0.4-0.2-0.5-0.6-0.5c-0.3,0-0.5,0.1-0.7,0.2
				c-0.2,0.2-0.3,0.4-0.4,0.6c-0.1,0.2-0.2,0.2-0.4,0.2H80c-0.1,0-0.1,0-0.2-0.1c0,0,0-0.1,0-0.2c0.1-0.5,0.3-0.9,0.6-1.2
				c0.3-0.4,0.7-0.7,1.2-0.9c0.5-0.2,1-0.3,1.5-0.3c0.8,0,1.3,0.2,1.8,0.5c0.4,0.3,0.6,0.7,0.6,1.3c0,0.2,0,0.4-0.1,0.5
				c-0.1,0.5-0.4,0.9-0.7,1.3c-0.4,0.4-1,0.8-1.7,1.3l-1,0.9h2.6c0.1,0,0.1,0,0.2,0.1c0,0,0.1,0.1,0,0.2L84.6,26
				c0,0.1-0.1,0.1-0.1,0.2c-0.1,0.1-0.1,0.1-0.2,0.1h-5.4C78.8,26.2,78.8,26.2,78.7,26.1z"/>
			<path class="st1" d="M86.9,26.1c-0.4-0.2-0.7-0.4-0.9-0.7c-0.2-0.3-0.3-0.6-0.3-1c0-0.1,0-0.2,0-0.3c0-0.1,0-0.1,0.1-0.2
				c0.1,0,0.1-0.1,0.2-0.1h1.5c0.1,0,0.2,0,0.2,0.1c0.1,0,0.1,0.1,0.1,0.1c0.1,0.4,0.3,0.7,0.8,0.7c0.3,0,0.6-0.1,0.8-0.3
				c0.2-0.2,0.4-0.4,0.5-0.8c0-0.1,0-0.1,0-0.2c0-0.2-0.1-0.4-0.2-0.6c-0.1-0.1-0.3-0.2-0.6-0.2c-0.2,0-0.3,0-0.4,0.1
				c-0.1,0-0.2,0.1-0.4,0.2c-0.1,0.1-0.2,0.1-0.3,0.1h-1.4c-0.1,0-0.1,0-0.2-0.1c0-0.1,0-0.1,0-0.2l1.1-3.6c0-0.1,0.1-0.2,0.2-0.2
				c0.1-0.1,0.2-0.1,0.2-0.1h4.2c0.1,0,0.1,0,0.2,0.1c0,0,0.1,0.1,0,0.2l-0.2,1c0,0.1-0.1,0.1-0.1,0.2c-0.1,0-0.1,0.1-0.2,0.1h-3
				l-0.4,1.3c0.2-0.1,0.4-0.2,0.6-0.3c0.2-0.1,0.5-0.1,0.8-0.1c0.4,0,0.7,0.1,1,0.2c0.3,0.2,0.6,0.4,0.8,0.7c0.2,0.3,0.3,0.6,0.3,1
				c0,0.1,0,0.3-0.1,0.5c-0.2,0.8-0.5,1.4-1.1,1.8c-0.6,0.4-1.3,0.7-2.3,0.7C87.8,26.3,87.3,26.3,86.9,26.1z"/>
		</g>
	</g>
	<g>
		<g>
			<g>
				<g>
					<path class="st1" d="M5,28.9c1.5,1.6,3.2,2.9,5.2,3.8c2,0.9,4,1.5,6.2,1.6c0.2,0,0.4,0,0.6,0c0.6,0,1.2,0,1.7-0.1
						c2.5-0.3,4.9-1.2,7.1-2.6c0.1,0,0.1-0.1,0.1-0.2c0-0.1-0.1-0.1-0.2-0.1c-3.1,1-6.3,1-9.3-0.1c-5.8-2.2-9.3-7.9-9.1-13.9
						c-0.1-6,3.5-11.7,9.4-13.9c3-1.1,6.3-1.2,9.3-0.1c0.1,0,0.1,0,0.2-0.1c0-0.1,0-0.1-0.1-0.2c-2.1-1.4-4.5-2.3-7-2.6
						c-0.6-0.1-1.2-0.1-1.7-0.1c-0.2,0-0.4,0-0.6,0c-2.2,0.1-4.3,0.7-6.2,1.6C8.5,3,6.8,4.3,5.3,5.9c-1.6,1.7-2.8,3.6-3.6,5.8
						c-0.7,1.9-1.1,3.8-1.2,5.7c0,1.9,0.3,3.9,1,5.7C2.3,25.3,3.4,27.2,5,28.9z"/>
				</g>
			</g>
			<g>
				<path class="st0" d="M23.2,32c-0.4,0-0.7,0-1.1,0c-8,0-14.3-6.4-14.2-14.5C7.9,9.4,14.7,2.8,22.7,2.8c0.4,0,0.7,0,1.1,0
					c-1.4-0.4-3-0.6-4.5-0.6C11,2.3,4.2,9.1,4.1,17.5C4,26,10.6,32.8,18.9,32.8C20.4,32.8,21.8,32.4,23.2,32z"/>
			</g>
		</g>
	</g>
</g>
</svg>
