<?xml version="1.0" encoding="utf-8"?>
<!-- Generator: Adobe Illustrator 26.1.0, SVG Export Plug-In . SVG Version: 6.00 Build 0)  -->
<svg version="1.1" id="Capa_1" xmlns="http://www.w3.org/2000/svg" xmlns:xlink="http://www.w3.org/1999/xlink" x="0px" y="0px"
	 viewBox="0 0 102.8 36.7" style="enable-background:new 0 0 102.8 36.7;" xml:space="preserve">
<style type="text/css">
	.st0{fill:#D2B552;}
	.st1{fill:#FFFFFF;}
</style>
<g>
	<g>
		<path class="st0" d="M28.7,31.7C28.7,31.7,28.7,31.7,28.7,31.7l0.5-2.3l-0.7,0.5c0,0-0.1,0-0.1,0c0,0-0.1,0-0.1-0.1l-0.2-0.4
			c0,0,0,0,0,0c0,0,0-0.1,0-0.1c0,0,0,0,0.1-0.1l1.3-0.9c0,0,0.1,0,0.1,0h0.6c0,0,0.1,0,0.1,0c0,0,0,0.1,0,0.1l-0.7,3.1
			c0,0,0,0.1-0.1,0.1s-0.1,0-0.1,0L28.7,31.7C28.8,31.8,28.8,31.8,28.7,31.7z"/>
		<path class="st0" d="M31.8,31.7C31.7,31.7,31.7,31.7,31.8,31.7l0.1-0.6h-1.5c0,0-0.1,0-0.1,0c0,0,0-0.1,0-0.1l0.1-0.5
			c0-0.1,0-0.1,0.1-0.1l1.8-1.9c0.1-0.1,0.1-0.1,0.2-0.1h0.8c0,0,0.1,0,0.1,0c0,0,0,0.1,0,0.1l-0.4,1.8h0.4c0,0,0.1,0,0.1,0
			c0,0,0,0.1,0,0.1L33.3,31c0,0,0,0.1-0.1,0.1s-0.1,0-0.1,0h-0.4l-0.1,0.5c0,0,0,0.1-0.1,0.1s-0.1,0-0.1,0L31.8,31.7
			C31.8,31.8,31.8,31.8,31.8,31.7z M31.3,30.4H32l0.2-1.1L31.3,30.4z"/>
		<path class="st0" d="M34.9,30.4C34.9,30.4,34.9,30.4,34.9,30.4l0.1-0.6c0,0,0-0.1,0.1-0.1c0,0,0.1,0,0.1,0h1.5c0,0,0.1,0,0.1,0
			c0,0,0,0.1,0,0.1l-0.1,0.5c0,0,0,0.1-0.1,0.1c0,0-0.1,0-0.1,0L34.9,30.4C34.9,30.5,34.9,30.5,34.9,30.4z"/>
		<path class="st0" d="M38.9,31.7C38.9,31.7,38.8,31.7,38.9,31.7l0.5-2.3l-0.7,0.5c0,0-0.1,0-0.1,0c0,0-0.1,0-0.1-0.1l-0.2-0.4
			c0,0,0,0,0,0c0,0,0-0.1,0-0.1c0,0,0,0,0.1-0.1l1.3-0.9c0,0,0.1,0,0.1,0h0.6c0,0,0.1,0,0.1,0c0,0,0,0.1,0,0.1l-0.7,3.1
			c0,0,0,0.1-0.1,0.1s-0.1,0-0.1,0L38.9,31.7C38.9,31.8,38.9,31.8,38.9,31.7z"/>
		<path class="st0" d="M41,31.7c-0.2-0.1-0.3-0.2-0.4-0.3c-0.1-0.1-0.1-0.3-0.1-0.4c0-0.1,0-0.1,0-0.1c0,0,0-0.1,0-0.1s0.1,0,0.1,0
			h0.7c0,0,0.1,0,0.1,0c0,0,0,0,0,0.1c0,0.2,0.2,0.3,0.4,0.3c0.1,0,0.3,0,0.4-0.1c0.1-0.1,0.2-0.2,0.2-0.4c0,0,0-0.1,0-0.1
			c0-0.1,0-0.2-0.1-0.3c-0.1-0.1-0.2-0.1-0.3-0.1c-0.1,0-0.1,0-0.2,0c-0.1,0-0.1,0-0.2,0.1c-0.1,0-0.1,0.1-0.1,0.1h-0.7
			c0,0-0.1,0-0.1,0c0,0,0-0.1,0-0.1l0.5-1.7c0,0,0-0.1,0.1-0.1c0,0,0.1,0,0.1,0h1.9c0,0,0.1,0,0.1,0c0,0,0,0.1,0,0.1L43.3,29
			c0,0,0,0.1-0.1,0.1s-0.1,0-0.1,0h-1.4l-0.2,0.6c0.1-0.1,0.2-0.1,0.3-0.1c0.1,0,0.2,0,0.4,0c0.2,0,0.3,0,0.5,0.1
			c0.1,0.1,0.3,0.2,0.3,0.3c0.1,0.1,0.1,0.3,0.1,0.5c0,0.1,0,0.1,0,0.2c-0.1,0.4-0.2,0.6-0.5,0.8c-0.3,0.2-0.6,0.3-1.1,0.3
			C41.4,31.8,41.1,31.8,41,31.7z"/>
		<path class="st0" d="M44.8,30.4C44.8,30.4,44.8,30.4,44.8,30.4l0.1-0.6c0,0,0-0.1,0.1-0.1c0,0,0.1,0,0.1,0h1.5c0,0,0.1,0,0.1,0
			c0,0,0,0.1,0,0.1l-0.1,0.5c0,0,0,0.1-0.1,0.1c0,0-0.1,0-0.1,0L44.8,30.4C44.8,30.5,44.8,30.5,44.8,30.4z"/>
		<path class="st0" d="M48.8,31.7C48.7,31.7,48.7,31.7,48.8,31.7l0.5-2.3l-0.7,0.5c0,0-0.1,0-0.1,0c0,0-0.1,0-0.1-0.1l-0.2-0.4
			c0,0,0,0,0,0c0,0,0-0.1,0-0.1c0,0,0,0,0.1-0.1l1.3-0.9c0,0,0.1,0,0.1,0h0.6c0,0,0.1,0,0.1,0c0,0,0,0.1,0,0.1l-0.7,3.1
			c0,0,0,0.1-0.1,0.1s-0.1,0-0.1,0L48.8,31.7C48.8,31.8,48.8,31.8,48.8,31.7z"/>
		<path class="st0" d="M50.9,31.7c-0.2-0.1-0.3-0.2-0.4-0.3s-0.1-0.3-0.1-0.5c0-0.1,0-0.2,0-0.3c0.1-0.3,0.3-0.6,0.6-1l1.1-1.1
			c0.1-0.1,0.1-0.1,0.2-0.1H53c0,0,0.1,0,0.1,0c0,0,0,0,0,0.1c0,0,0,0,0,0c0,0,0,0,0,0l-0.8,0.9c0,0,0.1,0,0.1,0
			c0.2,0,0.3,0.1,0.5,0.1s0.3,0.2,0.4,0.3c0.1,0.1,0.1,0.3,0.1,0.5c0,0.1,0,0.1,0,0.2c0,0.2-0.2,0.4-0.3,0.6
			c-0.2,0.2-0.4,0.3-0.6,0.4s-0.5,0.2-0.8,0.2C51.3,31.8,51.1,31.8,50.9,31.7z M52.1,31c0.1-0.1,0.2-0.2,0.2-0.4c0,0,0-0.1,0-0.1
			c0-0.1,0-0.2-0.1-0.3c-0.1-0.1-0.2-0.1-0.3-0.1c-0.1,0-0.3,0-0.4,0.1s-0.2,0.2-0.2,0.4c0,0,0,0.1,0,0.1c0,0.1,0,0.2,0.1,0.3
			c0.1,0.1,0.2,0.1,0.3,0.1C51.9,31.1,52,31.1,52.1,31z"/>
		<path class="st0" d="M54.5,31.7C54.4,31.7,54.4,31.7,54.5,31.7l0.6-3.2c0,0,0-0.1,0.1-0.1c0,0,0.1,0,0.1,0h1.2
			c0.3,0,0.5,0,0.7,0.1c0.2,0.1,0.4,0.2,0.5,0.4c0.1,0.2,0.2,0.4,0.2,0.6c0,0.1,0,0.1,0,0.2c0,0.3-0.1,0.5-0.2,0.7
			c-0.1,0.5-0.3,0.8-0.6,1c-0.3,0.2-0.6,0.3-1.1,0.3L54.5,31.7C54.5,31.8,54.5,31.8,54.5,31.7z M56,31.1c0.2,0,0.4,0,0.5-0.1
			c0.1-0.1,0.2-0.2,0.3-0.5c0.1-0.3,0.1-0.5,0.2-0.7c0-0.1,0-0.1,0-0.2c0-0.1,0-0.3-0.1-0.3c-0.1-0.1-0.2-0.1-0.4-0.1h-0.5l-0.4,1.9
			H56z"/>
		<path class="st0" d="M57.9,31.7C57.9,31.7,57.9,31.7,57.9,31.7l0.6-3.2c0,0,0-0.1,0.1-0.1c0,0,0.1,0,0.1,0H61c0,0,0.1,0,0.1,0
			c0,0,0,0.1,0,0.1L61,29c0,0,0,0.1-0.1,0.1c0,0-0.1,0-0.1,0h-1.5l-0.1,0.6h1.4c0,0,0.1,0,0.1,0c0,0,0,0.1,0,0.1l-0.1,0.4
			c0,0,0,0.1-0.1,0.1c0,0-0.1,0-0.1,0H59l-0.1,0.6h1.6c0,0,0.1,0,0.1,0s0,0.1,0,0.1l-0.1,0.5c0,0,0,0.1-0.1,0.1c0,0-0.1,0-0.1,0
			L57.9,31.7C58,31.8,57.9,31.8,57.9,31.7z"/>
		<path class="st1" d="M62,31.7C62,31.7,62,31.7,62,31.7l0.6-3.2c0,0,0-0.1,0.1-0.1c0,0,0.1,0,0.1,0h0.5c0.1,0,0.1,0,0.1,0.1
			l0.8,1.8l0.4-1.8c0,0,0-0.1,0-0.1c0,0,0.1,0,0.1,0h0.6c0,0,0.1,0,0.1,0c0,0,0,0.1,0,0.1l-0.7,3.1c0,0,0,0.1,0,0.1c0,0-0.1,0-0.1,0
			h-0.5c0,0-0.1,0-0.1,0c0,0,0,0-0.1-0.1L63.2,30l-0.4,1.7c0,0,0,0.1-0.1,0.1c0,0-0.1,0-0.1,0L62,31.7C62.1,31.8,62,31.8,62,31.7z"
			/>
		<path class="st1" d="M66.2,31.7c-0.2-0.1-0.4-0.2-0.5-0.4c-0.1-0.2-0.2-0.3-0.2-0.6c0-0.1,0-0.2,0-0.3c0.1-0.3,0.1-0.6,0.2-0.8
			c0.1-0.4,0.3-0.8,0.6-1s0.6-0.3,1.1-0.3c0.2,0,0.5,0,0.7,0.1s0.4,0.2,0.5,0.4s0.2,0.4,0.2,0.6c0,0.1,0,0.1,0,0.2
			c0,0.3-0.1,0.5-0.2,0.8c-0.1,0.4-0.3,0.8-0.6,1s-0.6,0.3-1.1,0.3C66.6,31.8,66.4,31.8,66.2,31.7z M67.4,31
			c0.1-0.1,0.2-0.3,0.3-0.5c0.1-0.3,0.1-0.6,0.2-0.8c0-0.1,0-0.1,0-0.2c0-0.3-0.1-0.4-0.4-0.4c-0.2,0-0.3,0.1-0.4,0.2
			s-0.2,0.3-0.3,0.5c-0.1,0.2-0.1,0.5-0.2,0.8c0,0.1,0,0.1,0,0.2c0,0.3,0.1,0.4,0.4,0.4C67.1,31.1,67.3,31.1,67.4,31z"/>
		<path class="st1" d="M69.6,31.7c0,0,0-0.1,0-0.1l-0.3-3.1c0,0,0-0.1,0-0.1c0,0,0.1,0,0.1,0h0.6c0,0,0.1,0,0.1,0c0,0,0,0.1,0,0.1
			l0.2,2.2l1.1-2.2c0,0,0-0.1,0.1-0.1c0,0,0.1,0,0.1,0h0.7c0,0,0,0,0.1,0c0,0,0,0,0,0.1c0,0,0,0,0,0.1l-1.6,3.1
			c-0.1,0.1-0.1,0.1-0.2,0.1h-0.8C69.6,31.8,69.6,31.8,69.6,31.7z"/>
		<path class="st1" d="M72.1,31.7C72.1,31.7,72.1,31.7,72.1,31.7l0.7-3.2c0,0,0-0.1,0-0.1c0,0,0.1,0,0.1,0h0.7c0,0,0.1,0,0.1,0
			c0,0,0,0.1,0,0.1L73,31.7c0,0,0,0.1-0.1,0.1c0,0-0.1,0-0.1,0L72.1,31.7C72.2,31.8,72.1,31.8,72.1,31.7z"/>
		<path class="st1" d="M73.7,31.7C73.7,31.7,73.7,31.7,73.7,31.7l0.6-3.2c0,0,0-0.1,0.1-0.1c0,0,0.1,0,0.1,0h2.3c0,0,0.1,0,0.1,0
			c0,0,0,0.1,0,0.1L76.7,29c0,0,0,0.1-0.1,0.1c0,0-0.1,0-0.1,0h-1.5l-0.1,0.6h1.4c0,0,0.1,0,0.1,0c0,0,0,0.1,0,0.1l-0.1,0.4
			c0,0,0,0.1-0.1,0.1c0,0-0.1,0-0.1,0h-1.4l-0.1,0.6h1.6c0,0,0.1,0,0.1,0s0,0.1,0,0.1l-0.1,0.5c0,0,0,0.1-0.1,0.1c0,0-0.1,0-0.1,0
			L73.7,31.7C73.7,31.8,73.7,31.8,73.7,31.7z"/>
		<path class="st1" d="M76.8,31.7C76.8,31.7,76.7,31.7,76.8,31.7l0.6-3.2c0,0,0-0.1,0.1-0.1c0,0,0.1,0,0.1,0h0.5c0,0,0.1,0,0.1,0
			c0,0,0,0,0.1,0.1l0.5,1.5l1.1-1.5c0,0,0,0,0.1-0.1c0,0,0.1,0,0.1,0h0.5c0,0,0.1,0,0.1,0c0,0,0,0.1,0,0.1l-0.7,3.1
			c0,0,0,0.1-0.1,0.1s-0.1,0-0.1,0h-0.6c0,0-0.1,0-0.1,0c0,0,0-0.1,0-0.1l0.4-1.7l-0.7,0.9c-0.1,0.1-0.1,0.1-0.2,0.1h-0.3
			c-0.1,0-0.1,0-0.1-0.1l-0.3-1l-0.4,1.8c0,0,0,0.1-0.1,0.1c0,0-0.1,0-0.1,0L76.8,31.7C76.8,31.8,76.8,31.8,76.8,31.7z"/>
		<path class="st1" d="M80.8,31.7C80.7,31.7,80.7,31.7,80.8,31.7l0.6-3.2c0,0,0-0.1,0.1-0.1c0,0,0.1,0,0.1,0H83
			c0.3,0,0.6,0.1,0.8,0.2c0.2,0.1,0.3,0.3,0.3,0.6c0,0.1,0,0.1,0,0.2c0,0.2-0.1,0.3-0.2,0.4c-0.1,0.1-0.2,0.2-0.3,0.2
			c0.1,0.1,0.2,0.1,0.2,0.2c0.1,0.1,0.1,0.2,0.1,0.3c0,0,0,0.1,0,0.2c-0.1,0.3-0.2,0.6-0.4,0.8c-0.2,0.2-0.5,0.3-0.9,0.3L80.8,31.7
			C80.8,31.8,80.8,31.8,80.8,31.7z M82.4,31.1c0.1,0,0.2,0,0.3-0.1s0.1-0.2,0.2-0.3c0,0,0-0.1,0-0.1c0-0.1,0-0.1-0.1-0.2
			c-0.1,0-0.1-0.1-0.2-0.1h-0.6l-0.2,0.8H82.4z M82.6,29.8c0.1,0,0.2,0,0.3-0.1c0.1-0.1,0.1-0.2,0.1-0.3c0-0.1,0-0.1-0.1-0.2
			c0,0-0.1-0.1-0.2-0.1h-0.6L82,29.8H82.6z"/>
		<path class="st1" d="M84.2,31.7C84.2,31.7,84.2,31.7,84.2,31.7l0.6-3.2c0,0,0-0.1,0.1-0.1c0,0,0.1,0,0.1,0h1.3
			c0.4,0,0.6,0.1,0.8,0.2c0.2,0.1,0.3,0.3,0.3,0.6c0,0.1,0,0.2,0,0.3c0,0.2-0.1,0.4-0.3,0.6c-0.1,0.2-0.3,0.3-0.5,0.4l0.4,1.2
			c0,0,0,0,0,0.1c0,0,0,0.1,0,0.1c0,0-0.1,0-0.1,0h-0.7c-0.1,0-0.1,0-0.2-0.1l-0.3-1h-0.5l-0.2,1c0,0,0,0.1-0.1,0.1c0,0-0.1,0-0.1,0
			L84.2,31.7C84.3,31.8,84.2,31.8,84.2,31.7z M86,29.9c0.1,0,0.2,0,0.3-0.1c0.1-0.1,0.1-0.2,0.2-0.3c0,0,0-0.1,0-0.1
			c0-0.1,0-0.2-0.1-0.2s-0.1-0.1-0.3-0.1h-0.5l-0.2,0.8H86z"/>
		<path class="st1" d="M87.5,31.7C87.5,31.7,87.5,31.7,87.5,31.7l0.6-3.2c0,0,0-0.1,0.1-0.1c0,0,0.1,0,0.1,0h2.3c0,0,0.1,0,0.1,0
			c0,0,0,0.1,0,0.1L90.5,29c0,0,0,0.1-0.1,0.1c0,0-0.1,0-0.1,0h-1.5l-0.1,0.6h1.4c0,0,0.1,0,0.1,0c0,0,0,0.1,0,0.1l-0.1,0.4
			c0,0,0,0.1-0.1,0.1c0,0-0.1,0-0.1,0h-1.4l-0.1,0.6H90c0,0,0.1,0,0.1,0s0,0.1,0,0.1L90,31.7c0,0,0,0.1-0.1,0.1c0,0-0.1,0-0.1,0
			L87.5,31.7C87.5,31.8,87.5,31.8,87.5,31.7z"/>
	</g>
</g>
<g>
	<g>
		<g>
			<g>
				<path class="st1" d="M14.6,17.2c0-0.1-0.1-0.1-0.1-0.2c0,0,0-0.1,0-0.2L20,7.5c0.2-0.3,0.4-0.4,0.7-0.4H23
					c0.3,0,0.5,0.1,0.5,0.4l1.4,9.4c0,0.1,0,0.2-0.1,0.3c-0.1,0.1-0.2,0.1-0.3,0.1h-1.9c-0.3,0-0.4-0.1-0.5-0.4L22,15.6h-3.8
					L17.4,17c-0.1,0.2-0.3,0.3-0.6,0.3h-2C14.7,17.3,14.7,17.3,14.6,17.2z M19.3,13.4h2.6l-0.5-3.7L19.3,13.4z"/>
				<path class="st1" d="M26.3,17.2c-0.1-0.1-0.1-0.2-0.1-0.3l2-9.5c0-0.1,0.1-0.2,0.2-0.3c0.1-0.1,0.2-0.1,0.3-0.1h4
					c1.1,0,2,0.2,2.6,0.7c0.6,0.4,0.9,1.1,0.9,1.9c0,0.3,0,0.5-0.1,0.8c-0.1,0.7-0.4,1.3-0.8,1.7c-0.4,0.5-0.9,0.8-1.5,1.1l1.2,3.6
					c0,0.1,0,0.1,0,0.2c0,0.1-0.1,0.2-0.1,0.2c-0.1,0.1-0.2,0.1-0.2,0.1h-2.1c-0.3,0-0.4-0.1-0.5-0.4l-0.9-3.2h-1.4L29,17
					c0,0.1-0.1,0.2-0.2,0.3c-0.1,0.1-0.2,0.1-0.3,0.1h-2C26.4,17.3,26.3,17.3,26.3,17.2z M31.7,11.6c0.4,0,0.8-0.1,1-0.3
					c0.3-0.2,0.4-0.5,0.5-0.9c0-0.1,0-0.2,0-0.3c0-0.3-0.1-0.5-0.3-0.6c-0.2-0.2-0.4-0.2-0.8-0.2h-1.6l-0.5,2.4H31.7z"/>
				<path class="st1" d="M38.3,17.2c-0.1-0.1-0.1-0.2-0.1-0.3l1.6-7.5h-2.6c-0.1,0-0.2,0-0.2-0.1C37,9.3,37,9.2,37,9.1l0.4-1.6
					c0-0.1,0.1-0.2,0.2-0.3c0.1-0.1,0.2-0.1,0.3-0.1h7.9c0.1,0,0.2,0,0.2,0.1C46,7.3,46,7.4,46,7.5l-0.4,1.6c0,0.1-0.1,0.2-0.2,0.3
					c-0.1,0.1-0.2,0.1-0.3,0.1h-2.6L41,17c0,0.1-0.1,0.2-0.2,0.3c-0.1,0.1-0.2,0.1-0.3,0.1h-2C38.5,17.3,38.4,17.3,38.3,17.2z"/>
				<path class="st1" d="M43.4,17.2c0-0.1-0.1-0.1-0.1-0.2c0,0,0-0.1,0-0.2l5.4-9.4c0.2-0.3,0.4-0.4,0.7-0.4h2.4
					c0.3,0,0.5,0.1,0.5,0.4l1.4,9.4c0,0.1,0,0.2-0.1,0.3c-0.1,0.1-0.2,0.1-0.3,0.1h-1.9c-0.3,0-0.4-0.1-0.5-0.4l-0.2-1.4H47L46.1,17
					c-0.1,0.2-0.3,0.3-0.6,0.3h-2C43.5,17.3,43.4,17.3,43.4,17.2z M48,13.4h2.6l-0.5-3.7L48,13.4z"/>
				<path class="st1" d="M54.8,17.2c-0.1-0.1-0.1-0.2-0.1-0.3l2-9.5c0-0.1,0.1-0.2,0.2-0.3c0.1-0.1,0.2-0.1,0.3-0.1h4.3
					c1,0,1.9,0.2,2.4,0.6c0.6,0.4,0.9,1,0.9,1.7c0,0.2,0,0.4-0.1,0.6c-0.1,0.5-0.3,0.9-0.6,1.2c-0.3,0.3-0.6,0.6-1,0.7
					c0.3,0.2,0.5,0.4,0.7,0.7c0.2,0.3,0.3,0.6,0.3,1c0,0.1,0,0.3-0.1,0.5c-0.2,1-0.7,1.8-1.4,2.3c-0.7,0.5-1.6,0.8-2.9,0.8h-4.8
					C55,17.3,54.9,17.3,54.8,17.2z M59.8,15.3c0.4,0,0.7-0.1,1-0.3c0.3-0.2,0.4-0.5,0.5-0.8c0-0.1,0-0.2,0-0.3
					c0-0.3-0.1-0.5-0.2-0.6c-0.2-0.2-0.4-0.2-0.7-0.2h-2l-0.5,2.3H59.8z M60.5,11.1c0.4,0,0.7-0.1,1-0.4c0.3-0.3,0.4-0.6,0.4-0.9
					c0-0.2-0.1-0.4-0.2-0.5c-0.1-0.1-0.4-0.2-0.7-0.2h-1.9l-0.5,2.1H60.5z"/>
				<path class="st1" d="M65.4,17.2c-0.1-0.1-0.1-0.2-0.1-0.3l2-9.5c0-0.1,0.1-0.2,0.2-0.3c0.1-0.1,0.2-0.1,0.3-0.1h4
					c1.1,0,2,0.2,2.6,0.7c0.6,0.4,0.9,1.1,0.9,1.9c0,0.3,0,0.5-0.1,0.8c-0.1,0.7-0.4,1.3-0.8,1.7c-0.4,0.5-0.9,0.8-1.5,1.1l1.2,3.6
					c0,0.1,0,0.1,0,0.2c0,0.1-0.1,0.2-0.1,0.2c-0.1,0.1-0.2,0.1-0.2,0.1h-2.1c-0.3,0-0.4-0.1-0.5-0.4l-0.9-3.2h-1.4L68.1,17
					c0,0.1-0.1,0.2-0.2,0.3c-0.1,0.1-0.2,0.1-0.3,0.1h-2C65.5,17.3,65.4,17.3,65.4,17.2z M70.8,11.6c0.4,0,0.8-0.1,1-0.3
					c0.3-0.2,0.4-0.5,0.5-0.9c0-0.1,0-0.2,0-0.3c0-0.3-0.1-0.5-0.3-0.6c-0.2-0.2-0.4-0.2-0.8-0.2h-1.6l-0.5,2.4H70.8z"/>
				<path class="st1" d="M75.3,17.2c-0.1-0.1-0.1-0.2-0.1-0.3l2-9.5c0-0.1,0.1-0.2,0.2-0.3c0.1-0.1,0.2-0.1,0.3-0.1h2.1
					c0.1,0,0.2,0,0.2,0.1c0.1,0.1,0.1,0.2,0.1,0.3l-2,9.5c0,0.1-0.1,0.2-0.2,0.3c-0.1,0.1-0.2,0.1-0.3,0.1h-2.1
					C75.4,17.3,75.4,17.3,75.3,17.2z"/>
				<path class="st1" d="M79.2,17.2c0-0.1-0.1-0.1-0.1-0.2c0,0,0-0.1,0-0.2l5.4-9.4c0.2-0.3,0.4-0.4,0.7-0.4h2.4
					c0.3,0,0.5,0.1,0.5,0.4l1.4,9.4c0,0.1,0,0.2-0.1,0.3c-0.1,0.1-0.2,0.1-0.3,0.1h-1.9c-0.3,0-0.4-0.1-0.5-0.4l-0.2-1.4h-3.8L82,17
					c-0.1,0.2-0.3,0.3-0.6,0.3h-2C79.4,17.3,79.3,17.3,79.2,17.2z M83.9,13.4h2.6L86,9.7L83.9,13.4z"/>
				<path class="st1" d="M90.7,17.2c-0.1-0.1-0.1-0.2-0.1-0.3l2-9.5c0-0.1,0.1-0.2,0.2-0.3c0.1-0.1,0.2-0.1,0.3-0.1h1.6
					c0.2,0,0.4,0.1,0.5,0.3l2.3,5.5l1.2-5.4c0-0.1,0.1-0.2,0.2-0.3c0.1-0.1,0.2-0.1,0.3-0.1h1.9c0.1,0,0.2,0,0.2,0.1
					c0.1,0.1,0.1,0.2,0.1,0.3l-2,9.5c0,0.1-0.1,0.2-0.2,0.3c-0.1,0.1-0.2,0.1-0.3,0.1h-1.6c-0.1,0-0.2,0-0.3-0.1
					c-0.1-0.1-0.1-0.1-0.2-0.2l-2.3-5.3L93.2,17c0,0.1-0.1,0.2-0.2,0.3c-0.1,0.1-0.2,0.1-0.3,0.1H91C90.8,17.3,90.8,17.3,90.7,17.2z
					"/>
			</g>
		</g>
		<g>
			<path class="st1" d="M13.6,26.5c-0.1-0.1-0.1-0.1-0.1-0.2l0.2-6.6c0-0.1,0-0.1,0.1-0.2s0.1-0.1,0.2-0.1h1.3
				c0.2,0,0.3,0.1,0.3,0.3l-0.2,3.8l1.2-2.2c0.1-0.2,0.2-0.3,0.4-0.3h0.8c0.2,0,0.3,0.1,0.3,0.3l0.2,2.2l1.5-3.9
				c0-0.1,0.1-0.1,0.1-0.2c0.1,0,0.1-0.1,0.2-0.1h1.4c0.1,0,0.1,0,0.1,0c0,0,0,0.1,0,0.1c0,0,0,0.1,0,0.1l-2.4,6.6
				c0,0.1-0.1,0.2-0.2,0.2c-0.1,0.1-0.2,0.1-0.3,0.1h-1.1c-0.1,0-0.2,0-0.2-0.1c-0.1-0.1-0.1-0.1-0.1-0.2l-0.5-2.8l-1.5,2.8
				c-0.1,0.2-0.2,0.3-0.4,0.3h-1C13.8,26.6,13.7,26.5,13.6,26.5z"/>
			<path class="st1" d="M21.3,26.5c0,0-0.1-0.1,0-0.2l1.4-6.6c0-0.1,0.1-0.1,0.1-0.2c0.1-0.1,0.1-0.1,0.2-0.1h4.8
				c0.1,0,0.1,0,0.2,0.1c0,0.1,0,0.1,0,0.2l-0.2,1c0,0.1-0.1,0.1-0.1,0.2c-0.1,0-0.1,0.1-0.2,0.1h-3.2L24,22.2h3
				c0.1,0,0.1,0,0.2,0.1c0,0.1,0,0.1,0,0.2L27,23.4c0,0.1-0.1,0.1-0.1,0.2c-0.1,0.1-0.1,0.1-0.2,0.1h-3L23.4,25h3.3
				c0.1,0,0.1,0,0.2,0.1c0,0.1,0,0.1,0,0.2l-0.2,1c0,0.1-0.1,0.1-0.1,0.2c-0.1,0-0.1,0.1-0.2,0.1h-4.9
				C21.4,26.6,21.3,26.5,21.3,26.5z"/>
			<path class="st1" d="M27.8,26.5c0,0-0.1-0.1,0-0.2l1.4-6.6c0-0.1,0.1-0.1,0.1-0.2c0.1-0.1,0.1-0.1,0.2-0.1h4.8
				c0.1,0,0.1,0,0.2,0.1c0,0.1,0,0.1,0,0.2l-0.2,1c0,0.1-0.1,0.1-0.1,0.2s-0.1,0.1-0.2,0.1h-3.2l-0.3,1.3h3c0.1,0,0.1,0,0.2,0.1
				c0,0.1,0,0.1,0,0.2l-0.2,0.9c0,0.1-0.1,0.1-0.1,0.2c-0.1,0.1-0.1,0.1-0.2,0.1h-3L29.9,25h3.3c0.1,0,0.1,0,0.2,0.1
				c0,0.1,0,0.1,0,0.2l-0.2,1c0,0.1-0.1,0.1-0.1,0.2c-0.1,0-0.1,0.1-0.2,0.1H28C27.9,26.6,27.9,26.5,27.8,26.5z"/>
			<path class="st1" d="M34.4,26.5c0,0-0.1-0.1,0-0.2l1.4-6.6c0-0.1,0-0.1,0.1-0.2c0.1-0.1,0.1-0.1,0.2-0.1h1.4c0.1,0,0.1,0,0.2,0.1
				c0,0.1,0.1,0.1,0,0.2l-0.5,2.2l2.2-2.3c0.1-0.1,0.3-0.2,0.4-0.2h1.6c0.1,0,0.1,0,0.1,0.1c0,0,0,0.1,0,0.1c0,0.1,0,0.1-0.1,0.1
				L38.5,23l1.9,3.3c0,0,0,0.1,0,0.1c0,0.1,0,0.1-0.1,0.2c-0.1,0-0.1,0.1-0.2,0.1h-1.5c-0.2,0-0.3-0.1-0.4-0.2l-1.5-2.5l-0.5,2.5
				c0,0.1,0,0.1-0.1,0.2c-0.1,0-0.1,0.1-0.2,0.1h-1.4C34.5,26.6,34.4,26.5,34.4,26.5z"/>
			<path class="st1" d="M41.2,26.5c0,0-0.1-0.1,0-0.2l1.4-6.6c0-0.1,0.1-0.1,0.1-0.2s0.1-0.1,0.2-0.1h4.8c0.1,0,0.1,0,0.2,0.1
				c0,0.1,0,0.1,0,0.2l-0.2,1c0,0.1-0.1,0.1-0.1,0.2c-0.1,0-0.1,0.1-0.2,0.1h-3.2l-0.3,1.3h3c0.1,0,0.1,0,0.2,0.1c0,0.1,0,0.1,0,0.2
				l-0.2,0.9c0,0.1-0.1,0.1-0.1,0.2c-0.1,0.1-0.1,0.1-0.2,0.1h-3L43.3,25h3.3c0.1,0,0.1,0,0.2,0.1c0,0.1,0,0.1,0,0.2l-0.2,1
				c0,0.1-0.1,0.1-0.1,0.2c-0.1,0-0.1,0.1-0.2,0.1h-4.9C41.3,26.6,41.2,26.5,41.2,26.5z"/>
			<path class="st1" d="M47.7,26.5c0,0-0.1-0.1,0-0.2l1.4-6.6c0-0.1,0-0.1,0.1-0.2s0.1-0.1,0.2-0.1h1.1c0.2,0,0.3,0.1,0.3,0.2
				l1.6,3.8l0.8-3.8c0-0.1,0-0.1,0.1-0.2c0.1-0.1,0.1-0.1,0.2-0.1h1.3c0.1,0,0.1,0,0.2,0.1c0,0.1,0,0.1,0,0.2l-1.4,6.6
				c0,0.1,0,0.1-0.1,0.2c-0.1,0.1-0.1,0.1-0.2,0.1h-1.1c-0.1,0-0.2,0-0.2-0.1c0,0-0.1-0.1-0.1-0.1l-1.6-3.7l-0.8,3.6
				c0,0.1-0.1,0.1-0.1,0.2c-0.1,0-0.1,0.1-0.2,0.1h-1.3C47.8,26.6,47.8,26.5,47.7,26.5z"/>
			<path class="st1" d="M55.1,26.5c0,0-0.1-0.1,0-0.2l1.4-6.6c0-0.1,0.1-0.1,0.1-0.2c0.1-0.1,0.1-0.1,0.2-0.1h2.5
				c0.5,0,1,0.1,1.5,0.3c0.4,0.2,0.8,0.4,1,0.8c0.3,0.3,0.4,0.7,0.4,1.2c0,0.1,0,0.3-0.1,0.5c-0.1,0.6-0.2,1.1-0.3,1.6
				c-0.2,1-0.6,1.7-1.2,2.1c-0.6,0.4-1.4,0.7-2.4,0.7h-2.9C55.2,26.6,55.1,26.5,55.1,26.5z M58.3,25c0.4,0,0.8-0.1,1-0.3
				c0.3-0.2,0.4-0.5,0.5-1c0.1-0.6,0.3-1.1,0.3-1.5c0-0.1,0-0.3,0-0.4c0-0.3-0.1-0.5-0.3-0.7c-0.2-0.1-0.5-0.2-0.8-0.2h-1L57.2,25
				H58.3z"/>
			<path class="st0" d="M64.5,26.5c0-0.1,0-0.1,0-0.2l0.2-0.8c0-0.2,0.2-0.4,0.4-0.5l1.2-0.9c0.8-0.5,1.3-0.9,1.7-1.2
				c0.4-0.3,0.7-0.5,0.9-0.7c0.2-0.2,0.4-0.4,0.4-0.6c0-0.1,0-0.2,0-0.2c0-0.3-0.2-0.5-0.6-0.5c-0.3,0-0.5,0.1-0.7,0.2
				c-0.2,0.2-0.3,0.4-0.4,0.6c-0.1,0.2-0.2,0.2-0.4,0.2h-1.3c-0.1,0-0.1,0-0.1-0.1c0,0,0-0.1,0-0.1c0.1-0.4,0.3-0.9,0.6-1.2
				c0.3-0.4,0.7-0.7,1.2-0.9c0.5-0.2,1-0.3,1.5-0.3c0.7,0,1.3,0.2,1.7,0.5c0.4,0.3,0.6,0.7,0.6,1.3c0,0.2,0,0.3-0.1,0.5
				c-0.1,0.5-0.3,0.9-0.7,1.3c-0.4,0.4-0.9,0.8-1.7,1.3l-1,0.8h2.6c0.1,0,0.1,0,0.2,0.1c0,0,0,0.1,0,0.2l-0.2,1.1
				c0,0.1-0.1,0.1-0.1,0.2s-0.1,0.1-0.2,0.1h-5.3C64.6,26.6,64.5,26.5,64.5,26.5z"/>
			<path class="st0" d="M72.3,26.1c-0.5-0.4-0.7-0.9-0.7-1.6c0-0.2,0-0.3,0-0.5c0-0.3,0.1-0.6,0.2-1c0.1-0.4,0.2-0.7,0.2-1
				c0.5-1.8,1.6-2.7,3.4-2.7c0.8,0,1.4,0.2,1.9,0.6c0.5,0.4,0.7,0.9,0.7,1.6c0,0.1,0,0.3,0,0.5c-0.1,0.7-0.2,1.3-0.4,2
				c-0.2,0.9-0.6,1.5-1.2,2c-0.5,0.5-1.3,0.7-2.2,0.7C73.4,26.7,72.7,26.5,72.3,26.1z M75.6,23.9c0.1-0.6,0.3-1.2,0.4-1.9
				c0-0.2,0-0.3,0-0.4c0-0.3-0.1-0.4-0.2-0.6c-0.1-0.1-0.3-0.2-0.6-0.2c-0.3,0-0.6,0.1-0.8,0.3c-0.2,0.2-0.3,0.5-0.4,0.9
				c-0.1,0.6-0.3,1.2-0.4,1.9c0,0.1,0,0.3,0,0.4c0,0.3,0.1,0.4,0.2,0.6c0.1,0.1,0.3,0.2,0.6,0.2C74.9,25.1,75.4,24.7,75.6,23.9z"/>
			<path class="st0" d="M78.2,26.5c0-0.1,0-0.1,0-0.2l0.2-0.8c0-0.2,0.2-0.4,0.4-0.5l1.2-0.9c0.8-0.5,1.3-0.9,1.7-1.2
				c0.4-0.3,0.7-0.5,0.9-0.7c0.2-0.2,0.4-0.4,0.4-0.6c0-0.1,0-0.2,0-0.2c0-0.3-0.2-0.5-0.6-0.5c-0.3,0-0.5,0.1-0.7,0.2
				c-0.2,0.2-0.3,0.4-0.4,0.6c-0.1,0.2-0.2,0.2-0.4,0.2h-1.3c-0.1,0-0.1,0-0.1-0.1c0,0,0-0.1,0-0.1c0.1-0.4,0.3-0.9,0.6-1.2
				c0.3-0.4,0.7-0.7,1.2-0.9c0.5-0.2,1-0.3,1.5-0.3c0.7,0,1.3,0.2,1.7,0.5c0.4,0.3,0.6,0.7,0.6,1.3c0,0.2,0,0.3-0.1,0.5
				c-0.1,0.5-0.3,0.9-0.7,1.3c-0.4,0.4-0.9,0.8-1.7,1.3l-1,0.8H84c0.1,0,0.1,0,0.2,0.1c0,0,0,0.1,0,0.2L84,26.3
				c0,0.1-0.1,0.1-0.1,0.2c-0.1,0.1-0.1,0.1-0.2,0.1h-5.3C78.3,26.6,78.2,26.5,78.2,26.5z"/>
			<path class="st0" d="M86.2,26.4c-0.4-0.2-0.7-0.4-0.9-0.7c-0.2-0.3-0.3-0.6-0.3-0.9c0-0.1,0-0.2,0-0.3c0-0.1,0-0.1,0.1-0.2
				c0.1,0,0.1-0.1,0.2-0.1h1.4c0.1,0,0.2,0,0.2,0.1c0.1,0,0.1,0.1,0.1,0.1c0.1,0.4,0.3,0.6,0.8,0.6c0.3,0,0.6-0.1,0.8-0.3
				c0.2-0.2,0.4-0.4,0.5-0.7c0-0.1,0-0.1,0-0.2c0-0.2-0.1-0.4-0.2-0.5c-0.1-0.1-0.3-0.2-0.6-0.2c-0.2,0-0.3,0-0.4,0.1
				c-0.1,0-0.2,0.1-0.3,0.2c-0.1,0.1-0.2,0.1-0.3,0.1h-1.4c-0.1,0-0.1,0-0.1-0.1c0-0.1,0-0.1,0-0.2l1.1-3.5c0-0.1,0.1-0.2,0.2-0.2
				c0.1-0.1,0.2-0.1,0.2-0.1h4.2c0.1,0,0.1,0,0.2,0.1c0,0,0.1,0.1,0,0.2l-0.2,1c0,0.1-0.1,0.1-0.1,0.2c-0.1,0-0.1,0.1-0.2,0.1h-3
				l-0.4,1.3c0.2-0.1,0.4-0.2,0.6-0.3c0.2-0.1,0.5-0.1,0.8-0.1c0.4,0,0.7,0.1,1,0.2c0.3,0.2,0.6,0.4,0.7,0.7c0.2,0.3,0.3,0.6,0.3,1
				c0,0.1,0,0.3-0.1,0.5c-0.2,0.7-0.5,1.3-1.1,1.8c-0.6,0.4-1.3,0.6-2.3,0.6C87.1,26.7,86.6,26.6,86.2,26.4z"/>
		</g>
	</g>
	<g>
		<g>
			<g>
				<g>
					<path class="st0" d="M5.6,29.2C7,30.8,8.8,32,10.7,33c1.9,0.9,4,1.5,6.1,1.6c0.2,0,0.4,0,0.6,0c0.6,0,1.1,0,1.7-0.1
						c2.4-0.3,4.8-1.2,7-2.5c0.1,0,0.1-0.1,0.1-0.2c0-0.1-0.1-0.1-0.2-0.1c-3,1-6.2,1-9.2-0.1c-5.7-2.1-9.2-7.7-8.9-13.7
						C7.8,12,11.4,6.4,17.1,4.2c3-1.1,6.2-1.1,9.2-0.1c0.1,0,0.1,0,0.2-0.1c0-0.1,0-0.1-0.1-0.2c-2.1-1.3-4.5-2.2-6.9-2.5
						c-0.6-0.1-1.1-0.1-1.7-0.1c-0.2,0-0.4,0-0.6,0c-2.1,0.1-4.2,0.6-6.1,1.6C9.1,3.7,7.4,5,5.9,6.6c-1.5,1.6-2.7,3.5-3.5,5.7
						c-0.7,1.8-1.1,3.7-1.1,5.6c0,1.9,0.3,3.8,1,5.6C3,25.6,4.1,27.5,5.6,29.2z"/>
				</g>
			</g>
			<g>
				<path class="st1" d="M23.5,32.3c-0.4,0-0.7,0-1.1,0c-7.9,0-14.1-6.3-14-14.3c0.1-8,6.8-14.5,14.6-14.5c0.4,0,0.7,0,1.1,0
					c-1.3-0.4-3-0.6-4.4-0.6c-8.2,0-14.9,6.7-15,15c-0.1,8.3,6.4,15,14.6,15C20.8,33,22.2,32.7,23.5,32.3z"/>
			</g>
		</g>
	</g>
</g>
</svg>
