<svg id="Capa_1" data-name="Capa 1" xmlns="http://www.w3.org/2000/svg" viewBox="0 0 295.53 98.51"><defs><style>.cls-1{fill:#d7b46a;}.cls-2{fill:#fff;}</style></defs><path class="cls-1" d="M81.29,90.2a.32.32,0,0,1-.05-.26l1.39-6.46L80.5,84.87a.4.4,0,0,1-.23.08.3.3,0,0,1-.27-.17l-.69-1.24a.45.45,0,0,1,0-.13.44.44,0,0,1,.24-.4l3.83-2.54a.77.77,0,0,1,.34-.1h1.88a.28.28,0,0,1,.24.11.3.3,0,0,1,0,.25l-2,9.21a.4.4,0,0,1-.16.26.44.44,0,0,1-.26.1h-2A.33.33,0,0,1,81.29,90.2Z"/><path class="cls-1" d="M90.2,90.19a.3.3,0,0,1,0-.25l.33-1.56H85.9a.29.29,0,0,1-.23-.1.3.3,0,0,1,0-.25l.31-1.43a.79.79,0,0,1,.22-.41l5.32-5.57a.79.79,0,0,1,.57-.25h2.35a.29.29,0,0,1,.28.36l-1.16,5.46h1.25a.29.29,0,0,1,.25.1.31.31,0,0,1,0,.25L94.75,88a.49.49,0,0,1-.16.25.44.44,0,0,1-.28.1H93l-.32,1.56a.4.4,0,0,1-.16.26.45.45,0,0,1-.27.1H90.44A.28.28,0,0,1,90.2,90.19Zm-1.45-3.9H91l.67-3.14Z"/><path class="cls-1" d="M99.47,86.3a.3.3,0,0,1,0-.25l.3-1.42a.5.5,0,0,1,.16-.26.48.48,0,0,1,.28-.1h4.47a.27.27,0,0,1,.23.11.3.3,0,0,1,0,.25l-.3,1.42a.45.45,0,0,1-.15.24.46.46,0,0,1-.29.11H99.71A.28.28,0,0,1,99.47,86.3Z"/><path class="cls-1" d="M111.25,90.2a.29.29,0,0,1-.06-.26l1.39-6.46-2.13,1.39a.37.37,0,0,1-.22.08.28.28,0,0,1-.27-.17l-.7-1.24a.45.45,0,0,1,0-.13.41.41,0,0,1,.07-.23.46.46,0,0,1,.17-.17l3.83-2.54a.81.81,0,0,1,.34-.1h1.89a.27.27,0,0,1,.23.11.3.3,0,0,1,0,.25l-2,9.21a.39.39,0,0,1-.15.26.5.5,0,0,1-.27.1h-1.94A.3.3,0,0,1,111.25,90.2Z"/><path class="cls-1" d="M117.41,90.11a3,3,0,0,1-1.29-.94,2.15,2.15,0,0,1-.44-1.31,2,2,0,0,1,0-.4.33.33,0,0,1,.12-.21.36.36,0,0,1,.24-.09h2a.53.53,0,0,1,.3.08.31.31,0,0,1,.12.19,1,1,0,0,0,1.14.9,1.85,1.85,0,0,0,1.11-.37,1.71,1.71,0,0,0,.64-1,1.27,1.27,0,0,0,0-.32,1,1,0,0,0-.29-.75,1.18,1.18,0,0,0-.83-.27,1.72,1.72,0,0,0-.6.09,2.21,2.21,0,0,0-.48.25.92.92,0,0,1-.43.17h-2a.21.21,0,0,1-.2-.12.31.31,0,0,1,0-.25l1.56-4.92a.58.58,0,0,1,.22-.32.62.62,0,0,1,.34-.11h5.76a.29.29,0,0,1,.3.36l-.3,1.42a.49.49,0,0,1-.17.25.43.43,0,0,1-.27.1h-4.11l-.56,1.74a3.43,3.43,0,0,1,.84-.36,4.35,4.35,0,0,1,1.12-.12,3.11,3.11,0,0,1,1.43.34,2.58,2.58,0,0,1,1.41,2.33,4.89,4.89,0,0,1-.07.68,4,4,0,0,1-1.5,2.45,5.08,5.08,0,0,1-3.17.89A5.27,5.27,0,0,1,117.41,90.11Z"/><path class="cls-1" d="M128.72,86.3a.3.3,0,0,1-.05-.25l.3-1.42a.44.44,0,0,1,.16-.26.45.45,0,0,1,.28-.1h4.46a.29.29,0,0,1,.28.36l-.29,1.42a.41.41,0,0,1-.16.24.43.43,0,0,1-.28.11H129A.26.26,0,0,1,128.72,86.3Z"/><path class="cls-1" d="M140.49,90.2a.32.32,0,0,1-.06-.26l1.39-6.46-2.12,1.39a.4.4,0,0,1-.23.08.3.3,0,0,1-.27-.17l-.69-1.24a.45.45,0,0,1,0-.13.49.49,0,0,1,.06-.23.42.42,0,0,1,.18-.17l3.83-2.54a.77.77,0,0,1,.34-.1h1.88a.29.29,0,0,1,.24.11.35.35,0,0,1,.05.25l-2,9.21a.4.4,0,0,1-.16.26.45.45,0,0,1-.27.1h-1.94A.33.33,0,0,1,140.49,90.2Z"/><path class="cls-1" d="M146.91,90.09a2.72,2.72,0,0,1-1.24-1,2.47,2.47,0,0,1-.44-1.48,3.43,3.43,0,0,1,.08-.75,6.68,6.68,0,0,1,1.83-2.9l3.19-3.32a.73.73,0,0,1,.57-.29h2a.25.25,0,0,1,.2.1.24.24,0,0,1,0,.22.31.31,0,0,1-.05.12l0,.06-2.45,2.58a1.59,1.59,0,0,1,.4,0,3.46,3.46,0,0,1,1.41.39,2.8,2.8,0,0,1,1.06,1,2.45,2.45,0,0,1,.4,1.4,3.37,3.37,0,0,1-.07.66,4.11,4.11,0,0,1-.91,1.83A5,5,0,0,1,151.11,90a5.42,5.42,0,0,1-2.28.48A4.88,4.88,0,0,1,146.91,90.09Zm3.49-2.16a1.68,1.68,0,0,0,.65-1.06,1.59,1.59,0,0,0,0-.36,1,1,0,0,0-.34-.8,1.36,1.36,0,0,0-.89-.29,1.91,1.91,0,0,0-1.15.38,1.68,1.68,0,0,0-.66,1.07,1.4,1.4,0,0,0-.05.34,1,1,0,0,0,.35.81,1.32,1.32,0,0,0,.9.29A1.83,1.83,0,0,0,150.4,87.93Z"/><path class="cls-1" d="M157.33,90.2a.32.32,0,0,1-.05-.26l1.95-9.2a.48.48,0,0,1,.44-.37h3.49a5.33,5.33,0,0,1,2,.37,3.31,3.31,0,0,1,1.42,1.08,2.77,2.77,0,0,1,.52,1.7,4.13,4.13,0,0,1-.07.72c-.13.77-.28,1.49-.45,2.17a5.31,5.31,0,0,1-1.67,3,5.19,5.19,0,0,1-3.32.93h-4A.33.33,0,0,1,157.33,90.2Zm4.41-2a2.16,2.16,0,0,0,1.4-.42,2.52,2.52,0,0,0,.76-1.36c.19-.85.34-1.55.45-2.12a3.25,3.25,0,0,0,0-.51,1.17,1.17,0,0,0-.37-1,1.86,1.86,0,0,0-1.15-.31h-1.34l-1.22,5.67Z"/><path class="cls-1" d="M167.51,90.2a.29.29,0,0,1-.06-.26l2-9.2a.43.43,0,0,1,.16-.26.41.41,0,0,1,.28-.11h6.69a.27.27,0,0,1,.23.11.29.29,0,0,1,0,.26l-.29,1.41a.38.38,0,0,1-.16.25.44.44,0,0,1-.28.1h-4.48l-.4,1.8h4.18a.29.29,0,0,1,.24.11.37.37,0,0,1,.05.26L175.41,86a.48.48,0,0,1-.44.37h-4.19l-.38,1.84H175a.28.28,0,0,1,.24.11.33.33,0,0,1,.05.26l-.3,1.4a.43.43,0,0,1-.15.26.5.5,0,0,1-.27.1h-6.81A.33.33,0,0,1,167.51,90.2Z"/><path class="cls-2" d="M179.62,90.2a.29.29,0,0,1-.06-.26l2-9.2a.4.4,0,0,1,.14-.26.43.43,0,0,1,.28-.11h1.59a.41.41,0,0,1,.44.27L186.19,86l1.12-5.22a.46.46,0,0,1,.15-.26.41.41,0,0,1,.28-.11h1.8a.27.27,0,0,1,.23.11.33.33,0,0,1,0,.26l-1.95,9.19a.46.46,0,0,1-.15.26.41.41,0,0,1-.28.11h-1.59a.43.43,0,0,1-.28-.08,1,1,0,0,1-.16-.19l-2.25-5.1-1.08,5a.43.43,0,0,1-.15.26.5.5,0,0,1-.27.1h-1.8A.3.3,0,0,1,179.62,90.2Z"/><path class="cls-2" d="M192,90.09a3.19,3.19,0,0,1-1.38-1,2.81,2.81,0,0,1-.51-1.7,4.84,4.84,0,0,1,.07-.76c.16-.91.33-1.73.52-2.45a5.18,5.18,0,0,1,1.71-2.91,5.78,5.78,0,0,1,5.27-.62,3.22,3.22,0,0,1,1.39,1.09,2.87,2.87,0,0,1,.51,1.72,5.4,5.4,0,0,1-.07.72c-.14.77-.31,1.58-.53,2.45a5.05,5.05,0,0,1-1.71,2.9,5.17,5.17,0,0,1-3.29,1A5.34,5.34,0,0,1,192,90.09Zm3.49-2.22a2.56,2.56,0,0,0,.76-1.37c.2-.86.37-1.64.49-2.33a2.78,2.78,0,0,0,.06-.58q0-1.23-1.29-1.23a2,2,0,0,0-1.3.45,2.49,2.49,0,0,0-.76,1.36c-.16.6-.33,1.37-.51,2.33a3.68,3.68,0,0,0,0,.58c0,.82.43,1.23,1.3,1.23A2,2,0,0,0,195.53,87.87Z"/><path class="cls-2" d="M201.94,90.17a.41.41,0,0,1-.12-.3l-.95-9.11a.33.33,0,0,1,.08-.28.35.35,0,0,1,.26-.11H203a.41.41,0,0,1,.32.12.39.39,0,0,1,.13.27l.57,6.4,3.29-6.4a.58.58,0,0,1,.22-.27.61.61,0,0,1,.37-.12h2a.23.23,0,0,1,.18.08.24.24,0,0,1,.06.18.35.35,0,0,1,0,.17l-4.79,9.07a.76.76,0,0,1-.68.43h-2.33A.49.49,0,0,1,201.94,90.17Z"/><path class="cls-2" d="M209.49,90.19a.3.3,0,0,1-.05-.25l2-9.21a.46.46,0,0,1,.15-.26.45.45,0,0,1,.28-.1h2a.31.31,0,0,1,.23.1.27.27,0,0,1,.07.26l-2,9.21a.4.4,0,0,1-.16.26.45.45,0,0,1-.27.1h-2A.28.28,0,0,1,209.49,90.19Z"/><path class="cls-2" d="M214.16,90.2a.32.32,0,0,1,0-.26l1.95-9.2a.48.48,0,0,1,.44-.37h6.69a.29.29,0,0,1,.24.11.33.33,0,0,1,0,.26l-.3,1.41a.38.38,0,0,1-.16.25.42.42,0,0,1-.28.1h-4.48l-.4,1.8H222a.28.28,0,0,1,.24.11.33.33,0,0,1,.05.26L222.06,86a.48.48,0,0,1-.44.37h-4.18l-.39,1.84h4.6a.27.27,0,0,1,.23.11.33.33,0,0,1,.05.26l-.3,1.4a.43.43,0,0,1-.15.26.5.5,0,0,1-.27.1H214.4A.33.33,0,0,1,214.16,90.2Z"/><path class="cls-2" d="M223.25,90.2a.29.29,0,0,1-.06-.26l2-9.2a.46.46,0,0,1,.15-.26.46.46,0,0,1,.29-.11h1.61a.41.41,0,0,1,.3.1.6.6,0,0,1,.16.22l1.51,4.36,3.38-4.36a.86.86,0,0,1,.21-.22.65.65,0,0,1,.34-.1h1.62a.3.3,0,0,1,.24.11.33.33,0,0,1,.06.26l-2,9.2a.38.38,0,0,1-.14.26.48.48,0,0,1-.28.1h-1.8a.29.29,0,0,1-.24-.11.28.28,0,0,1-.06-.25l1.08-5.07-2.07,2.72a.75.75,0,0,1-.57.33h-.76a.41.41,0,0,1-.41-.33l-1-2.85-1.1,5.2a.4.4,0,0,1-.16.26.5.5,0,0,1-.27.1h-1.8A.33.33,0,0,1,223.25,90.2Z"/><path class="cls-2" d="M235,90.2a.29.29,0,0,1-.06-.26l2-9.2a.46.46,0,0,1,.15-.26.46.46,0,0,1,.29-.11h4.18a4.15,4.15,0,0,1,2.37.59,1.89,1.89,0,0,1,.86,1.65,2.91,2.91,0,0,1-.07.6,2.46,2.46,0,0,1-.61,1.19,3.17,3.17,0,0,1-1,.71,1.69,1.69,0,0,1,.71.67,1.85,1.85,0,0,1,.27,1,4.55,4.55,0,0,1,0,.5,3.71,3.71,0,0,1-1.32,2.25,4.45,4.45,0,0,1-2.77.77h-4.69A.33.33,0,0,1,235,90.2Zm4.83-1.82a1.39,1.39,0,0,0,.93-.32,1.36,1.36,0,0,0,.48-.78,1.25,1.25,0,0,0,0-.31.76.76,0,0,0-.24-.59,1,1,0,0,0-.72-.22h-1.9L238,88.38Zm.73-4.08a1.33,1.33,0,0,0,1-.38A1.25,1.25,0,0,0,242,83a.65.65,0,0,0-.22-.53,1,1,0,0,0-.65-.18h-1.81l-.44,2Z"/><path class="cls-2" d="M245.27,90.2a.32.32,0,0,1-.05-.26l1.94-9.2a.43.43,0,0,1,.16-.26.45.45,0,0,1,.28-.11h3.9A4.25,4.25,0,0,1,254,81a2.15,2.15,0,0,1,.88,1.83,4,4,0,0,1-.9,2.47,4.13,4.13,0,0,1-1.5,1.08l1.18,3.45a.3.3,0,0,1,0,.16.33.33,0,0,1-.13.21.36.36,0,0,1-.24.09h-2a.46.46,0,0,1-.49-.38l-.91-3.08h-1.36l-.67,3.1a.43.43,0,0,1-.15.26.51.51,0,0,1-.29.1h-1.94A.29.29,0,0,1,245.27,90.2Zm5.28-5.44a1.54,1.54,0,0,0,1-.31,1.39,1.39,0,0,0,.5-.84,1.42,1.42,0,0,0,0-.33.83.83,0,0,0-.26-.63,1.06,1.06,0,0,0-.76-.23h-1.58L249,84.76Z"/><path class="cls-2" d="M254.92,90.2a.29.29,0,0,1-.06-.26l2-9.2a.46.46,0,0,1,.15-.26.46.46,0,0,1,.29-.11H264a.27.27,0,0,1,.23.11.33.33,0,0,1,.05.26l-.3,1.41a.41.41,0,0,1-.15.25.45.45,0,0,1-.29.1H259l-.39,1.8h4.18a.27.27,0,0,1,.23.11.29.29,0,0,1,.05.26L262.81,86a.46.46,0,0,1-.15.26.46.46,0,0,1-.29.11h-4.18l-.38,1.84h4.59a.29.29,0,0,1,.24.11.33.33,0,0,1,.05.26l-.3,1.4a.4.4,0,0,1-.16.26.45.45,0,0,1-.27.1h-6.8A.3.3,0,0,1,254.92,90.2Z"/><path class="cls-2" d="M39.56,47.32a.83.83,0,0,1-.22-.59,1,1,0,0,1,.13-.47L55.4,18.59a2.23,2.23,0,0,1,2-1.25h7a1.31,1.31,0,0,1,1.46,1.25L70,46.26a1.26,1.26,0,0,1-.26,1,1,1,0,0,1-.78.34H63.51a1.19,1.19,0,0,1-1.34-1l-.69-4.1H50.22L47.71,46.6a1.83,1.83,0,0,1-1.64.95H40.16A.78.78,0,0,1,39.56,47.32ZM53.37,35.94h7.68l-1.51-11Z"/><path class="cls-2" d="M74.07,47.25a1,1,0,0,1-.16-.78l5.92-28a1.33,1.33,0,0,1,.47-.8,1.36,1.36,0,0,1,.87-.32H93q4.92,0,7.59,1.94a6.46,6.46,0,0,1,2.68,5.57,11.84,11.84,0,0,1-.26,2.37,10.79,10.79,0,0,1-2.46,5.14A12.6,12.6,0,0,1,96,35.64L99.6,46.17a1.05,1.05,0,0,1,0,.48,1.19,1.19,0,0,1-1.12.9H92.43a1.42,1.42,0,0,1-1.51-1.16L88.16,37H84l-2,9.45a1.24,1.24,0,0,1-.48.78,1.39,1.39,0,0,1-.86.3H74.73A.79.79,0,0,1,74.07,47.25ZM90.14,30.68a4.67,4.67,0,0,0,3-.93,4.35,4.35,0,0,0,1.52-2.57,4.89,4.89,0,0,0,.08-1A2.49,2.49,0,0,0,94,24.27a3.34,3.34,0,0,0-2.34-.72H86.86l-1.51,7.13Z"/><path class="cls-2" d="M109.61,47.25a.89.89,0,0,1-.17-.78l4.7-22.1h-7.59a.92.92,0,0,1-.74-.3.88.88,0,0,1-.17-.77l1-4.84A1.4,1.4,0,0,1,108,17.34h23.44a.88.88,0,0,1,.73.32,1,1,0,0,1,.18.8l-1.08,4.84a1.32,1.32,0,0,1-1.3,1.07h-7.59l-4.75,22.1a1.26,1.26,0,0,1-.46.78,1.27,1.27,0,0,1-.84.3h-6A.91.91,0,0,1,109.61,47.25Z"/><path class="cls-2" d="M124.5,47.32a.88.88,0,0,1-.22-.59,1.15,1.15,0,0,1,.13-.47l15.93-27.67a2.23,2.23,0,0,1,2-1.25h7a1.32,1.32,0,0,1,1.47,1.25L155,46.26a1.22,1.22,0,0,1-.26,1,1,1,0,0,1-.77.34h-5.48a1.17,1.17,0,0,1-1.34-1l-.69-4.1H135.16l-2.5,4.18a1.84,1.84,0,0,1-1.64.95h-5.91A.82.82,0,0,1,124.5,47.32Zm13.81-11.38H146l-1.51-11Z"/><path class="cls-2" d="M158.38,47.25a.89.89,0,0,1-.17-.78l6-28a1.28,1.28,0,0,1,.47-.8,1.36,1.36,0,0,1,.87-.32h12.73a12.67,12.67,0,0,1,7.23,1.79,5.75,5.75,0,0,1,2.61,5,9.08,9.08,0,0,1-.22,1.81A7.43,7.43,0,0,1,186,29.6a9.41,9.41,0,0,1-3,2.16,5.44,5.44,0,0,1,2.16,2,5.85,5.85,0,0,1,.82,3.07,9.88,9.88,0,0,1-.18,1.51,11.2,11.2,0,0,1-4,6.84q-3,2.36-8.44,2.35H159.12A.94.94,0,0,1,158.38,47.25Zm14.72-5.52a4.24,4.24,0,0,0,2.83-1,4,4,0,0,0,1.44-2.37,3.79,3.79,0,0,0,.13-1,2.29,2.29,0,0,0-.73-1.79,3.15,3.15,0,0,0-2.2-.67h-5.78l-1.47,6.78Zm2.2-12.44a4,4,0,0,0,3-1.16,3.82,3.82,0,0,0,1.17-2.81,2,2,0,0,0-.65-1.59,2.94,2.94,0,0,0-2-.56h-5.52L170,29.29Z"/><path class="cls-2" d="M189.57,47.25a.92.92,0,0,1-.15-.78l5.91-28a1.38,1.38,0,0,1,.47-.8,1.36,1.36,0,0,1,.87-.32h11.87q4.92,0,7.59,1.94a6.46,6.46,0,0,1,2.68,5.57,11.84,11.84,0,0,1-.26,2.37,10.79,10.79,0,0,1-2.46,5.14,12.65,12.65,0,0,1-4.57,3.28l3.58,10.53a.93.93,0,0,1,0,.48,1.08,1.08,0,0,1-.41.64,1.06,1.06,0,0,1-.71.26h-6.09a1.42,1.42,0,0,1-1.51-1.16L203.66,37h-4.14l-2,9.45a1.24,1.24,0,0,1-.48.78,1.36,1.36,0,0,1-.86.3h-5.91A.81.81,0,0,1,189.57,47.25Zm16.08-16.57a4.71,4.71,0,0,0,3-.93,4.34,4.34,0,0,0,1.51-2.57,4.25,4.25,0,0,0,.08-1,2.45,2.45,0,0,0-.77-1.92,3.33,3.33,0,0,0-2.33-.72h-4.79l-1.51,7.13Z"/><path class="cls-2" d="M218.92,47.23a.91.91,0,0,1-.15-.76l6-28a1.25,1.25,0,0,1,.45-.78,1.29,1.29,0,0,1,.84-.3h6.13a.91.91,0,0,1,.71.3.87.87,0,0,1,.2.78l-6,28.05a1.24,1.24,0,0,1-.48.78,1.32,1.32,0,0,1-.82.3h-6.17A.81.81,0,0,1,218.92,47.23Z"/><path class="cls-2" d="M230.55,47.32a.88.88,0,0,1-.22-.59,1.15,1.15,0,0,1,.13-.47l15.93-27.67a2.23,2.23,0,0,1,2-1.25h7a1.32,1.32,0,0,1,1.47,1.25L261,46.26a1.22,1.22,0,0,1-.26,1,1,1,0,0,1-.77.34h-5.48a1.17,1.17,0,0,1-1.34-1l-.69-4.1H241.21l-2.5,4.18a1.85,1.85,0,0,1-1.64.95h-5.92A.8.8,0,0,1,230.55,47.32Zm13.81-11.38h7.69l-1.52-11Z"/><path class="cls-2" d="M264.43,47.25a.89.89,0,0,1-.17-.78l6-28a1.3,1.3,0,0,1,.45-.8,1.24,1.24,0,0,1,.84-.32h4.84a1.22,1.22,0,0,1,1.33.82l6.78,16.19,3.41-15.89a1.4,1.4,0,0,1,.45-.8,1.28,1.28,0,0,1,.85-.32h5.48a.84.84,0,0,1,.71.32,1,1,0,0,1,.15.8l-6,28a1.35,1.35,0,0,1-.45.8,1.19,1.19,0,0,1-.84.32h-4.84a1.3,1.3,0,0,1-.86-.23,2.84,2.84,0,0,1-.47-.59l-6.87-15.54-3.28,15.28a1.19,1.19,0,0,1-.47.78,1.32,1.32,0,0,1-.82.3h-5.48A.94.94,0,0,1,264.43,47.25Z"/><path class="cls-2" d="M36.64,74.57a.85.85,0,0,1-.24-.71l.66-19.45a.79.79,0,0,1,.26-.49.74.74,0,0,1,.53-.21h3.83c.59,0,.85.25.79.76L42,65.71l3.45-6.5a1.27,1.27,0,0,1,1.15-.81h2.26a.79.79,0,0,1,.85.81l.72,6.59,4.29-11.39a.93.93,0,0,1,.38-.55,1.41,1.41,0,0,1,.71-.15h4.08a.52.52,0,0,1,.38.14.46.46,0,0,1,.13.35,1,1,0,0,1-.06.27l-7.1,19.39a1.67,1.67,0,0,1-.55.71,1.36,1.36,0,0,1-.87.29H48.66a.94.94,0,0,1-.71-.24,1,1,0,0,1-.26-.54l-1.51-8.37-4.44,8.37a1.38,1.38,0,0,1-1.3.78h-3A1,1,0,0,1,36.64,74.57Z"/><path class="cls-2" d="M59.3,74.65a.62.62,0,0,1-.12-.54L63.35,54.5a.93.93,0,0,1,.33-.56.92.92,0,0,1,.6-.23H78.54a.59.59,0,0,1,.5.23.7.7,0,0,1,.11.56l-.64,3a.86.86,0,0,1-.33.54,1,1,0,0,1-.6.21H68l-.85,3.84H76.1a.57.57,0,0,1,.49.23.7.7,0,0,1,.11.56l-.57,2.75a.93.93,0,0,1-.34.56.91.91,0,0,1-.6.22H66.28l-.82,3.93h9.79a.56.56,0,0,1,.5.23.69.69,0,0,1,.1.56l-.63,3a.86.86,0,0,1-.33.54.94.94,0,0,1-.58.21H59.81A.64.64,0,0,1,59.3,74.65Z"/><path class="cls-2" d="M78.66,74.65a.62.62,0,0,1-.12-.54L82.71,54.5a.9.9,0,0,1,.34-.56.92.92,0,0,1,.6-.23H97.91a.59.59,0,0,1,.5.23.7.7,0,0,1,.1.56l-.63,3a.86.86,0,0,1-.33.54,1,1,0,0,1-.61.21H87.4l-.85,3.84h8.91a.59.59,0,0,1,.5.23.7.7,0,0,1,.11.56l-.58,2.75a1,1,0,0,1-.33.56.91.91,0,0,1-.6.22H85.64l-.81,3.93h9.79a.57.57,0,0,1,.5.23.69.69,0,0,1,.1.56l-.63,3a.83.83,0,0,1-.34.54.91.91,0,0,1-.57.21H79.18A.66.66,0,0,1,78.66,74.65Z"/><path class="cls-2" d="M98,74.65a.62.62,0,0,1-.12-.54l4.17-19.61a1,1,0,0,1,.32-.56.86.86,0,0,1,.59-.23h4a.63.63,0,0,1,.52.23.67.67,0,0,1,.12.56L106.28,61l6.47-6.67a1.55,1.55,0,0,1,1.29-.61h4.75a.51.51,0,0,1,.41.17.63.63,0,0,1,.13.41.58.58,0,0,1-.18.42l-9.09,9.55,5.53,9.6a.79.79,0,0,1,.09.31.61.61,0,0,1-.25.48.76.76,0,0,1-.51.21h-4.47a1.11,1.11,0,0,1-1.09-.6L105,66.79l-1.57,7.32a.89.89,0,0,1-.32.54.87.87,0,0,1-.56.21h-4A.64.64,0,0,1,98,74.65Z"/><path class="cls-2" d="M118,74.65a.62.62,0,0,1-.12-.54l4.17-19.61a.93.93,0,0,1,.33-.56,1,1,0,0,1,.61-.23h14.26a.59.59,0,0,1,.5.23.7.7,0,0,1,.1.56l-.63,3a.86.86,0,0,1-.33.54,1,1,0,0,1-.61.21h-9.55l-.84,3.84h8.91a.59.59,0,0,1,.5.23.7.7,0,0,1,.11.56l-.58,2.75a1,1,0,0,1-.33.56.92.92,0,0,1-.61.22H125l-.81,3.93H134a.55.55,0,0,1,.5.23.7.7,0,0,1,.11.56l-.64,3a.86.86,0,0,1-.33.54.91.91,0,0,1-.57.21h-14.5A.64.64,0,0,1,118,74.65Z"/><path class="cls-2" d="M137.4,74.65a.62.62,0,0,1-.12-.54l4.17-19.61a1,1,0,0,1,.31-.56.89.89,0,0,1,.59-.23h3.39a.85.85,0,0,1,.93.58l4.75,11.33,2.39-11.12a1,1,0,0,1,.31-.56.88.88,0,0,1,.59-.23h3.84a.59.59,0,0,1,.5.23.7.7,0,0,1,.1.56L155,74.08a1,1,0,0,1-.31.56.88.88,0,0,1-.59.22h-3.39a.88.88,0,0,1-.6-.16,2,2,0,0,1-.33-.41L145,63.41l-2.29,10.7a.87.87,0,0,1-.34.54.91.91,0,0,1-.57.21h-3.84A.64.64,0,0,1,137.4,74.65Z"/><path class="cls-2" d="M159.21,74.65a.62.62,0,0,1-.12-.54l4.17-19.61a.93.93,0,0,1,.33-.56,1,1,0,0,1,.61-.23h7.43a11,11,0,0,1,4.29.79,6.94,6.94,0,0,1,3,2.29,5.91,5.91,0,0,1,1.12,3.63,9.66,9.66,0,0,1-.15,1.54c-.28,1.63-.6,3.17-1,4.62a11.32,11.32,0,0,1-3.55,6.3q-2.46,2-7.08,2h-8.58A.64.64,0,0,1,159.21,74.65Zm9.4-4.32a4.56,4.56,0,0,0,3-.91,5.11,5.11,0,0,0,1.6-2.9c.42-1.79.75-3.29,1-4.5a7.37,7.37,0,0,0,.09-1.09,2.49,2.49,0,0,0-.8-2,3.79,3.79,0,0,0-2.43-.67h-2.87l-2.6,12.09Z"/><path class="cls-1" d="M186.93,74.64a.66.66,0,0,1-.1-.53l.48-2.27a2.38,2.38,0,0,1,1.09-1.51l3.41-2.75q3.39-2.2,5.08-3.4A20.16,20.16,0,0,0,199.56,62a3.91,3.91,0,0,0,1.17-1.86,2.92,2.92,0,0,0,.09-.7c0-1-.62-1.54-1.85-1.54a2.87,2.87,0,0,0-2,.71,4.73,4.73,0,0,0-1.21,1.77,1.19,1.19,0,0,1-1.18.69h-4a.48.48,0,0,1-.43-.19.53.53,0,0,1-.08-.44,8.34,8.34,0,0,1,1.84-3.61,10.06,10.06,0,0,1,3.48-2.57,10.78,10.78,0,0,1,4.5-1A8.32,8.32,0,0,1,205,54.68a4.44,4.44,0,0,1,1.8,3.75,6.4,6.4,0,0,1-.15,1.45,7.88,7.88,0,0,1-2.18,3.91,28.44,28.44,0,0,1-4.92,3.82l-3,2.51h7.61a.6.6,0,0,1,.5.21.65.65,0,0,1,.11.54l-.67,3.24a1,1,0,0,1-.33.53.92.92,0,0,1-.61.22H187.43A.58.58,0,0,1,186.93,74.64Z"/><path class="cls-1" d="M209.94,73.41a5.86,5.86,0,0,1-2-4.71,8.61,8.61,0,0,1,.12-1.48c.12-.83.3-1.8.54-2.93s.49-2.14.73-3q2.06-7.83,9.91-7.86a8.58,8.58,0,0,1,5.59,1.77,5.79,5.79,0,0,1,2.08,4.7,13,13,0,0,1-.12,1.39,55.72,55.72,0,0,1-1.27,5.95,11.27,11.27,0,0,1-3.41,5.87,9.89,9.89,0,0,1-6.56,2.07A8.46,8.46,0,0,1,209.94,73.41Zm9.73-6.34c.44-1.72.85-3.59,1.21-5.62a11.52,11.52,0,0,0,.12-1.27,2.46,2.46,0,0,0-.51-1.69,2.17,2.17,0,0,0-1.7-.58,3.12,3.12,0,0,0-2.32.89,5.74,5.74,0,0,0-1.33,2.65c-.44,1.67-.85,3.54-1.21,5.62a6.91,6.91,0,0,0-.12,1.3,2.4,2.4,0,0,0,.51,1.67,2.14,2.14,0,0,0,1.66.56Q218.77,70.6,219.67,67.07Z"/><path class="cls-1" d="M227.39,74.64a.66.66,0,0,1-.11-.53l.49-2.27a2.38,2.38,0,0,1,1.09-1.51l3.41-2.75c2.25-1.47,3.95-2.6,5.08-3.4A21.57,21.57,0,0,0,240,62a4,4,0,0,0,1.16-1.86,2.92,2.92,0,0,0,.09-.7c0-1-.61-1.54-1.84-1.54a2.85,2.85,0,0,0-2,.71,4.62,4.62,0,0,0-1.21,1.77,1.2,1.2,0,0,1-1.18.69h-4a.5.5,0,0,1-.44-.19.52.52,0,0,1-.07-.44,8.24,8.24,0,0,1,1.84-3.61,10,10,0,0,1,3.47-2.57,10.82,10.82,0,0,1,4.51-1,8.34,8.34,0,0,1,5.12,1.36,4.44,4.44,0,0,1,1.8,3.75,5.85,5.85,0,0,1-.16,1.45A7.86,7.86,0,0,1,245,63.79,28.18,28.18,0,0,1,240,67.61l-3,2.51h7.62a.61.61,0,0,1,.5.21.65.65,0,0,1,.1.54l-.66,3.24a.92.92,0,0,1-.34.53.91.91,0,0,1-.6.22H227.89A.58.58,0,0,1,227.39,74.64Z"/><path class="cls-1" d="M251.08,74.45a6.28,6.28,0,0,1-2.74-2,4.6,4.6,0,0,1-.93-2.8,4.24,4.24,0,0,1,.06-.84.65.65,0,0,1,.25-.45.75.75,0,0,1,.5-.19h4.26a1,1,0,0,1,.62.17.6.6,0,0,1,.26.41c.18,1.27,1,1.9,2.45,1.9a3.86,3.86,0,0,0,2.35-.78,3.55,3.55,0,0,0,1.36-2.21,3,3,0,0,0,.06-.69,2.07,2.07,0,0,0-.62-1.61,2.5,2.5,0,0,0-1.76-.57,3.56,3.56,0,0,0-1.27.2,4.8,4.8,0,0,0-1,.53,1.91,1.91,0,0,1-.91.36h-4.2a.45.45,0,0,1-.43-.24.65.65,0,0,1-.05-.55l3.32-10.48a1.3,1.3,0,0,1,.49-.68,1.26,1.26,0,0,1,.72-.23h12.27a.6.6,0,0,1,.63.76l-.63,3a1,1,0,0,1-.36.54.94.94,0,0,1-.58.21h-8.76L255.23,62a7.16,7.16,0,0,1,1.78-.77,9.31,9.31,0,0,1,2.39-.26,6.39,6.39,0,0,1,3.05.73,5.45,5.45,0,0,1,2.19,2,5.38,5.38,0,0,1,.8,2.94,8.39,8.39,0,0,1-.15,1.45,8.5,8.5,0,0,1-3.18,5.23,10.9,10.9,0,0,1-6.76,1.9A11.06,11.06,0,0,1,251.08,74.45Z"/><path class="cls-1" d="M12.94,82.63A48.59,48.59,0,0,0,28,93.8a48,48,0,0,0,18,4.64l1.84.07a50.39,50.39,0,0,0,5.06-.35,49.78,49.78,0,0,0,20.55-7.45.42.42,0,0,0,.16-.53.39.39,0,0,0-.49-.21A40.48,40.48,0,0,1,46,89.6C29.05,83.34,18.91,66.77,19.62,49.24A42.16,42.16,0,0,1,47,8.9a40.52,40.52,0,0,1,27.12-.35.39.39,0,0,0,.49-.21.41.41,0,0,0-.15-.53A48.74,48.74,0,0,0,54.11.35a50.19,50.19,0,0,0-5-.35c-.62,0-1.23,0-1.84.07A48.35,48.35,0,0,0,29.08,4.7,50.25,50.25,0,0,0,13.79,15.85,51.3,51.3,0,0,0,0,49.24,50.16,50.16,0,0,0,2.92,65.9,49.6,49.6,0,0,0,12.94,82.63Z"/><path class="cls-2" d="M65.85,91.7c-1.06.08-2.12.13-3.2.13A41.25,41.25,0,0,1,21.27,49.61c.3-23.53,20-42.8,43.25-42.8,1.07,0,2.14.06,3.19.14A47.37,47.37,0,0,0,54.62,5.32c-24.14,0-44,19.82-44.28,44.29s19,44.32,43.15,44.33A43.09,43.09,0,0,0,65.85,91.7Z"/></svg>